<?xml version="1.0" encoding="UTF-8"?>
<svg width="220px" height="145px" viewBox="0 0 220 145" version="1.1" xmlns="http://www.w3.org/2000/svg" xmlns:xlink="http://www.w3.org/1999/xlink">
    <!-- Generator: Sketch 54.1 (76490) - https://sketchapp.com -->
    <title>Group 18 Copy</title>
    <desc>Created with Sketch.</desc>
    <g id="v5" stroke="none" stroke-width="1" fill="none" fill-rule="evenodd">
        <g id="PrismaLabs-Landing-Copy-3" transform="translate(-797.000000, -1799.000000)">
            <g id="Group-2-Copy" transform="translate(0.000000, 1482.000000)">
                <g id="Group-5" transform="translate(421.000000, 317.000000)">
                    <g id="Group-18-Copy" transform="translate(374.400015, 0.000000)">
                        <path d="M57.1752023,138.470405 L57.1752023,138.384005 L52.8768021,138.384005 L52.8768021,136.807205 L59.0328023,136.807205 L59.0328023,137.887205 C59.0328023,141.775205 56.8512023,144.302405 53.1792021,144.302405 C49.204802,144.302405 46.7640019,141.300005 46.7640019,137.541605 C46.7640019,133.740005 49.291202,130.759204 53.2440021,130.759204 C56.4408022,130.759204 57.8448023,132.444005 57.8448023,132.444005 L56.7864023,133.804805 C56.7864023,133.804805 55.5336022,132.444005 53.2440021,132.444005 C50.392802,132.444005 48.6000019,134.712005 48.6000019,137.541605 C48.6000019,140.349605 50.328002,142.617605 53.1792021,142.617605 C55.5984022,142.617605 57.1752023,140.932805 57.1752023,138.470405 Z M66.9816027,144.302405 C63.0936025,144.302405 60.5664024,141.300005 60.5664024,137.541605 C60.5664024,133.740005 63.0936025,130.759204 66.9816027,130.759204 C70.9344028,130.759204 73.4616029,133.740005 73.4616029,137.541605 C73.4616029,141.300005 70.9344028,144.302405 66.9816027,144.302405 Z M66.9816027,142.596005 C69.8112028,142.596005 71.6256028,140.349605 71.6256028,137.541605 C71.6256028,134.712005 69.8112028,132.444005 66.9816027,132.444005 C64.1952026,132.444005 62.4024025,134.712005 62.4024025,137.541605 C62.4024025,140.349605 64.1952026,142.596005 66.9816027,142.596005 Z M81.5832032,144.302405 C77.6952031,144.302405 75.168003,141.300005 75.168003,137.541605 C75.168003,133.740005 77.6952031,130.759204 81.5832032,130.759204 C85.5360034,130.759204 88.0632035,133.740005 88.0632035,137.541605 C88.0632035,141.300005 85.5360034,144.302405 81.5832032,144.302405 Z M81.5832032,142.596005 C84.4128034,142.596005 86.2272034,140.349605 86.2272034,137.541605 C86.2272034,134.712005 84.4128034,132.444005 81.5832032,132.444005 C78.7968031,132.444005 77.0040031,134.712005 77.0040031,137.541605 C77.0040031,140.349605 78.7968031,142.596005 81.5832032,142.596005 Z M100.180804,138.470405 L100.180804,138.384005 L95.8824038,138.384005 L95.8824038,136.807205 L102.038404,136.807205 L102.038404,137.887205 C102.038404,141.775205 99.856804,144.302405 96.1848038,144.302405 C92.2104037,144.302405 89.7696036,141.300005 89.7696036,137.541605 C89.7696036,133.740005 92.2968037,130.759204 96.2496038,130.759204 C99.446404,130.759204 100.850404,132.444005 100.850404,132.444005 L99.792004,133.804805 C99.792004,133.804805 98.5392039,132.444005 96.2496038,132.444005 C93.3984037,132.444005 91.6056036,134.712005 91.6056036,137.541605 C91.6056036,140.349605 93.3336037,142.617605 96.1848038,142.617605 C98.6040039,142.617605 100.180804,140.932805 100.180804,138.470405 Z M112.773604,144.000005 L104.414404,144.000005 L104.414404,131.040004 L106.185604,131.040004 L106.185604,142.380005 L112.773604,142.380005 L112.773604,144.000005 Z M123.076805,136.656005 L123.076805,138.232805 L116.791205,138.232805 L116.791205,142.380005 L124.156805,142.380005 L124.156805,144.000005 L115.020005,144.000005 L115.020005,131.040004 L124.156805,131.040004 L124.156805,132.660005 L116.791205,132.660005 L116.791205,136.656005 L123.076805,136.656005 Z M136.684805,131.040004 C139.730406,131.040004 141.609606,132.616805 141.609606,135.360005 C141.609606,138.254405 139.644006,139.831205 136.598405,139.831205 L133.250405,139.831205 L133.250405,144.000005 L131.479205,144.000005 L131.479205,131.040004 L136.684805,131.040004 Z M139.795206,135.403205 C139.795206,133.545605 138.520806,132.660005 136.598405,132.660005 L133.250405,132.660005 L133.250405,138.211205 L136.598405,138.211205 C138.542406,138.211205 139.795206,137.390405 139.795206,135.403205 Z M152.301606,144.000005 L143.942406,144.000005 L143.942406,131.040004 L145.713606,131.040004 L145.713606,142.380005 L152.301606,142.380005 L152.301606,144.000005 Z M160.120806,131.040004 L165.585607,144.000005 L163.706407,144.000005 L162.561606,141.213605 L155.973606,141.213605 L154.828806,144.000005 L152.971206,144.000005 L158.414406,131.040004 L160.120806,131.040004 Z M159.278406,133.221605 L156.621606,139.636805 L161.913606,139.636805 L159.278406,133.221605 Z M171.936007,136.526405 L175.068007,131.040004 L177.098407,131.040004 L172.368007,139.032005 L172.368007,144.000005 L170.575207,144.000005 L170.575207,139.032005 L165.844807,131.040004 L167.875207,131.040004 L171.050407,136.526405 L171.460807,137.433605 L171.504007,137.433605 L171.936007,136.526405 Z" id="GOOGLEPLAY" fill="#A28F6E" fill-rule="nonzero"></path>
                        <g id="Group-26-Copy-3" transform="translate(65.700003, 0.000000)" fill="#E5C895">
                            <g id="Group-24-Copy-3" transform="translate(41.614287, 0.000000)">
                                <path d="M18.2586992,73.4465692 C16.9390283,72.1909131 16.1158419,70.4138543 16.1158419,68.4436278 C16.1158419,66.4734012 16.9390283,64.6963425 18.2586992,63.4406864 C19.5783701,64.6963425 20.4015564,66.4734012 20.4015564,68.4436278 C20.4015564,70.4138543 19.5783701,72.1909131 18.2586992,73.4465692 Z" id="Combined-Shape" transform="translate(18.258699, 68.443628) rotate(-240.000000) translate(-18.258699, -68.443628) "></path>
                                <path d="M11.8189663,66.4227963 C10.4992954,65.1671402 9.6761091,63.3900814 9.6761091,61.4198549 C9.6761091,59.4496284 10.4992954,57.6725696 11.8189663,56.4169135 C13.1386372,57.6725696 13.9618236,59.4496284 13.9618236,61.4198549 C13.9618236,63.3900814 13.1386372,65.1671402 11.8189663,66.4227963 Z" id="Combined-Shape-Copy-20" transform="translate(11.818966, 61.419855) rotate(20.000000) translate(-11.818966, -61.419855) "></path>
                                <path d="M19.6452107,64.8580835 C18.3255397,63.6024274 17.5023534,61.8253686 17.5023534,59.8551421 C17.5023534,57.8849156 18.3255397,56.1078568 19.6452107,54.8522007 C20.9648816,56.1078568 21.7880679,57.8849156 21.7880679,59.8551421 C21.7880679,61.8253686 20.9648816,63.6024274 19.6452107,64.8580835 Z" id="Combined-Shape-Copy-21" transform="translate(19.645211, 59.855142) rotate(10.000000) translate(-19.645211, -59.855142) "></path>
                                <path d="M26.6666677,70.5176499 C25.3469968,69.2619938 24.5238105,67.484935 24.5238105,65.5147085 C24.5238105,63.544482 25.3469968,61.7674232 26.6666677,60.5117671 C27.9863386,61.7674232 28.809525,63.544482 28.809525,65.5147085 C28.809525,67.484935 27.9863386,69.2619938 26.6666677,70.5176499 Z" id="Combined-Shape-Copy-2" transform="translate(26.666668, 65.514708) rotate(-246.000000) translate(-26.666668, -65.514708) "></path>
                                <path d="M33.0365108,66.4792912 C31.7168399,65.2236351 30.8936536,63.4465763 30.8936536,61.4763498 C30.8936536,59.5061233 31.7168399,57.7290645 33.0365108,56.4734084 C34.3561817,57.7290645 35.179368,59.5061233 35.179368,61.4763498 C35.179368,63.4465763 34.3561817,65.2236351 33.0365108,66.4792912 Z" id="Combined-Shape-Copy-3" transform="translate(33.036511, 61.476350) rotate(-252.000000) translate(-33.036511, -61.476350) "></path>
                                <path d="M26.2307367,60.9178369 C24.9110658,59.6621808 24.0878795,57.885122 24.0878795,55.9148955 C24.0878795,53.944669 24.9110658,52.1676102 26.2307367,50.9119541 C27.5504076,52.1676102 28.3735939,53.944669 28.3735939,55.9148955 C28.3735939,57.885122 27.5504076,59.6621808 26.2307367,60.9178369 Z" id="Combined-Shape-Copy-22" transform="translate(26.230737, 55.914896) rotate(5.000000) translate(-26.230737, -55.914896) "></path>
                                <path d="M38.4523825,60.0352965 C37.2060266,58.8394336 36.4285729,57.1469967 36.4285729,55.2705904 C36.4285729,53.3941842 37.2060266,51.7017473 38.4523825,50.5058844 C39.6987383,51.7017473 40.4761921,53.3941842 40.4761921,55.2705904 C40.4761921,57.1469967 39.6987383,58.8394336 38.4523825,60.0352965 Z" id="Combined-Shape-Copy-5" transform="translate(38.452382, 55.270590) rotate(-267.000000) translate(-38.452382, -55.270590) "></path>
                                <path d="M31.478756,56.6201262 C30.2324001,55.4242633 29.4549464,53.7318263 29.4549464,51.8554201 C29.4549464,49.9790139 30.2324001,48.286577 31.478756,47.090714 C32.7251118,48.286577 33.5025656,49.9790139 33.5025656,51.8554201 C33.5025656,53.7318263 32.7251118,55.4242633 31.478756,56.6201262 Z" id="Combined-Shape-Copy-23" transform="translate(31.478756, 51.855420) rotate(-5.000000) translate(-31.478756, -51.855420) "></path>
                                <path d="M41.9047636,53.364708 C40.7317228,52.2585348 40.0000016,50.6930306 40.0000016,48.9573549 C40.0000016,47.2216791 40.7317228,45.656175 41.9047636,44.5500018 C43.0778044,45.656175 43.8095256,47.2216791 43.8095256,48.9573549 C43.8095256,50.6930306 43.0778044,52.2585348 41.9047636,53.364708 Z" id="Combined-Shape-Copy-6" transform="translate(41.904764, 48.957355) rotate(-274.000000) translate(-41.904764, -48.957355) "></path>
                                <path d="M35.7142871,51.4588256 C34.5412463,50.3526524 33.8095252,48.7871482 33.8095252,47.0514725 C33.8095252,45.3157967 34.5412463,43.7502926 35.7142871,42.6441193 C36.8873279,43.7502926 37.6190491,45.3157967 37.6190491,47.0514725 C37.6190491,48.7871482 36.8873279,50.3526524 35.7142871,51.4588256 Z" id="Combined-Shape-Copy-24" transform="translate(35.714287, 47.051472) rotate(-5.000000) translate(-35.714287, -47.051472) "></path>
                                <path d="M44.5327566,44.1853784 C43.4330308,43.1389983 42.7470423,41.658116 42.7470423,40.0162606 C42.7470423,38.3744051 43.4330308,36.8935228 44.5327566,35.8471428 C45.6324824,36.8935228 46.318471,38.3744051 46.318471,40.0162606 C46.318471,41.658116 45.6324824,43.1389983 44.5327566,44.1853784 Z" id="Combined-Shape-Copy-8" transform="translate(44.532757, 40.016261) rotate(-294.000000) translate(-44.532757, -40.016261) "></path>
                                <path d="M38.6725971,45.0102459 C37.5728713,43.9638659 36.8868827,42.4829836 36.8868827,40.8411281 C36.8868827,39.1992727 37.5728713,37.7183904 38.6725971,36.6720103 C39.7723228,37.7183904 40.4583114,39.1992727 40.4583114,40.8411281 C40.4583114,42.4829836 39.7723228,43.9638659 38.6725971,45.0102459 Z" id="Combined-Shape-Copy-25" transform="translate(38.672597, 40.841128) rotate(-10.000000) translate(-38.672597, -40.841128) "></path>
                                <path d="M44.50492,35.8796597 C43.4785093,34.8930727 42.8382533,33.4968123 42.8382533,31.9487771 C42.8382533,30.400742 43.4785093,29.0044816 44.50492,28.0178946 C45.5313307,29.0044816 46.1715867,30.400742 46.1715867,31.9487771 C46.1715867,33.4968123 45.5313307,34.8930727 44.50492,35.8796597 Z" id="Combined-Shape-Copy-9" transform="translate(44.504920, 31.948777) rotate(-314.000000) translate(-44.504920, -31.948777) "></path>
                                <path d="M39.5981392,37.9483631 C38.5717284,36.9617762 37.9314724,35.5655158 37.9314724,34.0174806 C37.9314724,32.4694455 38.5717284,31.073185 39.5981392,30.0865981 C40.6245499,31.073185 41.2648059,32.4694455 41.2648059,34.0174806 C41.2648059,35.5655158 40.6245499,36.9617762 39.5981392,37.9483631 Z" id="Combined-Shape-Copy-26" transform="translate(39.598139, 34.017481) rotate(-30.000000) translate(-39.598139, -34.017481) "></path>
                                <path d="M43.768263,27.9733061 C42.8884824,27.1362021 42.3396915,25.9514962 42.3396915,24.6380119 C42.3396915,23.3245275 42.8884824,22.1398217 43.768263,21.3027176 C44.6480436,22.1398217 45.1968345,23.3245275 45.1968345,24.6380119 C45.1968345,25.9514962 44.6480436,27.1362021 43.768263,27.9733061 Z" id="Combined-Shape-Copy-12" transform="translate(43.768263, 24.638012) rotate(-318.000000) translate(-43.768263, -24.638012) "></path>
                                <path d="M39.4825486,31.5468357 C38.602768,30.7097316 38.0539771,29.5250258 38.0539771,28.2115414 C38.0539771,26.8980571 38.602768,25.7133512 39.4825486,24.8762472 C40.3623292,25.7133512 40.9111201,26.8980571 40.9111201,28.2115414 C40.9111201,29.5250258 40.3623292,30.7097316 39.4825486,31.5468357 Z" id="Combined-Shape-Copy-27" transform="translate(39.482549, 28.211541) rotate(-50.000000) translate(-39.482549, -28.211541) "></path>
                                <path d="M42.0154529,22.5444863 C41.2089873,21.7771409 40.705929,20.6911605 40.705929,19.4871332 C40.705929,18.2831059 41.2089873,17.1971255 42.0154529,16.4297801 C42.8219184,17.1971255 43.3249767,18.2831059 43.3249767,19.4871332 C43.3249767,20.6911605 42.8219184,21.7771409 42.0154529,22.5444863 Z" id="Combined-Shape-Copy-13" transform="translate(42.015453, 19.487133) rotate(-328.000000) translate(-42.015453, -19.487133) "></path>
                                <path d="M38.2059289,26.3562511 C37.3994634,25.5889057 36.8964051,24.5029254 36.8964051,23.2988981 C36.8964051,22.0948707 37.3994634,21.0088904 38.2059289,20.241545 C39.0123945,21.0088904 39.5154528,22.0948707 39.5154528,23.2988981 C39.5154528,24.5029254 39.0123945,25.5889057 38.2059289,26.3562511 Z" id="Combined-Shape-Copy-28" transform="translate(38.205929, 23.298898) rotate(-70.000000) translate(-38.205929, -23.298898) "></path>
                                <path d="M39.6345004,18.2562508 C38.8280348,17.4889054 38.3249765,16.4029251 38.3249765,15.1988977 C38.3249765,13.9948704 38.8280348,12.9088901 39.6345004,12.1415447 C40.440966,12.9088901 40.9440243,13.9948704 40.9440243,15.1988977 C40.9440243,16.4029251 40.440966,17.4889054 39.6345004,18.2562508 Z" id="Combined-Shape-Copy-14" transform="translate(39.634500, 15.198898) rotate(-336.000000) translate(-39.634500, -15.198898) "></path>
                                <path d="M36.5392622,22.0680157 C35.7327966,21.3006703 35.2297383,20.2146899 35.2297383,19.0106626 C35.2297383,17.8066353 35.7327966,16.7206549 36.5392622,15.9533095 C37.3457277,16.7206549 37.848786,17.8066353 37.848786,19.0106626 C37.848786,20.2146899 37.3457277,21.3006703 36.5392622,22.0680157 Z" id="Combined-Shape-Copy-29" transform="translate(36.539262, 19.010663) rotate(-70.000000) translate(-36.539262, -19.010663) "></path>
                                <path d="M36.9047634,14.2941182 C36.1716129,13.606497 35.7142871,12.6333458 35.7142871,11.5544122 C35.7142871,10.4754786 36.1716129,9.50232742 36.9047634,8.81470623 C37.6379139,9.50232742 38.0952396,10.4754786 38.0952396,11.5544122 C38.0952396,12.6333458 37.6379139,13.606497 36.9047634,14.2941182 Z" id="Combined-Shape-Copy-15" transform="translate(36.904763, 11.554412) rotate(-345.000000) translate(-36.904763, -11.554412) "></path>
                                <path d="M34.5238109,18.1058831 C33.7906604,17.4182619 33.3333347,16.4451107 33.3333347,15.3661771 C33.3333347,14.2872435 33.7906604,13.3140923 34.5238109,12.6264711 C35.2569614,13.3140923 35.7142871,14.2872435 35.7142871,15.3661771 C35.7142871,16.4451107 35.2569614,17.4182619 34.5238109,18.1058831 Z" id="Combined-Shape-Copy-30" transform="translate(34.523811, 15.366177) rotate(-80.000000) translate(-34.523811, -15.366177) "></path>
                                <path d="M33.5714299,10.7205887 C32.8382794,10.0329675 32.3809537,9.05981625 32.3809537,7.98088267 C32.3809537,6.90194909 32.8382794,5.92879787 33.5714299,5.24117668 C34.3045804,5.92879787 34.7619061,6.90194909 34.7619061,7.98088267 C34.7619061,9.05981625 34.3045804,10.0329675 33.5714299,10.7205887 Z" id="Combined-Shape-Copy-16" transform="translate(33.571430, 7.980883) rotate(-356.000000) translate(-33.571430, -7.980883) "></path>
                                <path d="M31.9047632,15.0088241 C31.1716127,14.3212029 30.7142869,13.3480517 30.7142869,12.2691181 C30.7142869,11.1901846 31.1716127,10.2170333 31.9047632,9.52941214 C32.6379137,10.2170333 33.0952394,11.1901846 33.0952394,12.2691181 C33.0952394,13.3480517 32.6379137,14.3212029 31.9047632,15.0088241 Z" id="Combined-Shape-Copy-31" transform="translate(31.904763, 12.269118) rotate(-90.000000) translate(-31.904763, -12.269118) "></path>
                                <path d="M29.7619059,7.62352971 C29.0287554,6.93590853 28.5714297,5.9627573 28.5714297,4.88382372 C28.5714297,3.80489015 29.0287554,2.83173892 29.7619059,2.14411773 C30.4950565,2.83173892 30.9523822,3.80489015 30.9523822,4.88382372 C30.9523822,5.9627573 30.4950565,6.93590853 29.7619059,7.62352971 Z" id="Combined-Shape-Copy-17" transform="translate(29.761906, 4.883824) rotate(-366.000000) translate(-29.761906, -4.883824) "></path>
                                <path d="M29.0476202,12.1500005 C28.3144697,11.4623793 27.857144,10.4892281 27.857144,9.41029449 C27.857144,8.33136092 28.3144697,7.35820969 29.0476202,6.6705885 C29.7807707,7.35820969 30.2380964,8.33136092 30.2380964,9.41029449 C30.2380964,10.4892281 29.7807707,11.4623793 29.0476202,12.1500005 Z" id="Combined-Shape-Copy-32" transform="translate(29.047620, 9.410294) rotate(-100.000000) translate(-29.047620, -9.410294) "></path>
                                <path d="M25.8333344,5.24117668 C25.1734989,4.61334864 24.7619057,3.72481926 24.7619057,2.73970599 C24.7619057,1.75459273 25.1734989,0.866063345 25.8333344,0.238235304 C26.4931698,0.866063345 26.904763,1.75459273 26.904763,2.73970599 C26.904763,3.72481926 26.4931698,4.61334864 25.8333344,5.24117668 Z" id="Combined-Shape-Copy-18" transform="translate(25.833334, 2.739706) rotate(-16.000000) translate(-25.833334, -2.739706) "></path>
                                <path d="M25.5952391,9.52941214 C24.9354037,8.9015841 24.5238105,8.01305472 24.5238105,7.02794146 C24.5238105,6.04282819 24.9354037,5.15429881 25.5952391,4.52647077 C26.2550746,5.15429881 26.6666677,6.04282819 26.6666677,7.02794146 C26.6666677,8.01305472 26.2550746,8.9015841 25.5952391,9.52941214 Z" id="Combined-Shape-Copy-33" transform="translate(25.595239, 7.027941) rotate(-110.000000) translate(-25.595239, -7.027941) "></path>
                                <path d="M23.2142866,6.6705885 C22.7010813,6.19224333 22.3809533,5.51526856 22.3809533,4.76470607 C22.3809533,4.01414358 22.7010813,3.33716882 23.2142866,2.85882364 C23.727492,3.33716882 24.04762,4.01414358 24.04762,4.76470607 C24.04762,5.51526856 23.727492,6.19224333 23.2142866,6.6705885 Z" id="Combined-Shape-Copy-34" transform="translate(23.214287, 4.764706) rotate(-100.000000) translate(-23.214287, -4.764706) "></path>
                                <path d="M20.5952389,4.76470607 C19.9354035,4.13687803 19.5238103,3.24834865 19.5238103,2.26323538 C19.5238103,1.27812212 19.9354035,0.389592738 20.5952389,-0.238235303 C21.2550744,0.389592738 21.6666675,1.27812212 21.6666675,2.26323538 C21.6666675,3.24834865 21.2550744,4.13687803 20.5952389,4.76470607 Z" id="Combined-Shape-Copy-19" transform="translate(20.595239, 2.263235) rotate(-66.000000) translate(-20.595239, -2.263235) "></path>
                                <path d="M8.3593536,66.6727316 C7.33608459,66.8643292 6.31688655,67.1297231 5.37161335,67.4796306 C3.2042412,68.2819168 1.78733649,69.3928146 1.40333697,70.7997013 L0.025234513,70.4231156 C0.559654832,68.4651213 2.31955277,67.085306 4.87594788,66.139017 C5.90466872,65.7582201 6.99955606,65.4731171 8.09658534,65.2677085 C8.48061795,65.195802 9.45296332,65.040721 9.4131338,65.0470308 C27.0040591,65.0481336 41.6793636,50.7652682 41.6793636,33.1147072 C41.6793636,28.0840944 40.7249559,23.1859243 38.5816209,18.789646 C35.1309154,11.7117688 28.9775543,5.9347973 21.6062336,3.00046102 L21.8040449,2.74978499 C34.2933486,7.72146085 42.3819771,19.3948169 42.3819771,33.1147072 C42.3819771,51.5406297 27.9565661,66.4581333 9.70304554,66.4676504 C9.61479784,66.4781228 8.71883946,66.6054212 8.3593536,66.6727316 Z" id="Oval-6" fill-rule="nonzero"></path>
                            </g>
                            <g id="Group-24-Copy-4" transform="translate(25.435715, 36.450001) scale(-1, 1) translate(-25.435715, -36.450001) translate(0.685714, 0.000000)">
                                <path d="M18.2586992,73.4465692 C16.9390283,72.1909131 16.1158419,70.4138543 16.1158419,68.4436278 C16.1158419,66.4734012 16.9390283,64.6963425 18.2586992,63.4406864 C19.5783701,64.6963425 20.4015564,66.4734012 20.4015564,68.4436278 C20.4015564,70.4138543 19.5783701,72.1909131 18.2586992,73.4465692 Z" id="Combined-Shape" transform="translate(18.258699, 68.443628) rotate(-240.000000) translate(-18.258699, -68.443628) "></path>
                                <path d="M11.8189663,66.4227963 C10.4992954,65.1671402 9.6761091,63.3900814 9.6761091,61.4198549 C9.6761091,59.4496284 10.4992954,57.6725696 11.8189663,56.4169135 C13.1386372,57.6725696 13.9618236,59.4496284 13.9618236,61.4198549 C13.9618236,63.3900814 13.1386372,65.1671402 11.8189663,66.4227963 Z" id="Combined-Shape-Copy-20" transform="translate(11.818966, 61.419855) rotate(20.000000) translate(-11.818966, -61.419855) "></path>
                                <path d="M19.6452107,64.8580835 C18.3255397,63.6024274 17.5023534,61.8253686 17.5023534,59.8551421 C17.5023534,57.8849156 18.3255397,56.1078568 19.6452107,54.8522007 C20.9648816,56.1078568 21.7880679,57.8849156 21.7880679,59.8551421 C21.7880679,61.8253686 20.9648816,63.6024274 19.6452107,64.8580835 Z" id="Combined-Shape-Copy-21" transform="translate(19.645211, 59.855142) rotate(10.000000) translate(-19.645211, -59.855142) "></path>
                                <path d="M26.6666677,70.5176499 C25.3469968,69.2619938 24.5238105,67.484935 24.5238105,65.5147085 C24.5238105,63.544482 25.3469968,61.7674232 26.6666677,60.5117671 C27.9863386,61.7674232 28.809525,63.544482 28.809525,65.5147085 C28.809525,67.484935 27.9863386,69.2619938 26.6666677,70.5176499 Z" id="Combined-Shape-Copy-2" transform="translate(26.666668, 65.514708) rotate(-246.000000) translate(-26.666668, -65.514708) "></path>
                                <path d="M33.0365108,66.4792912 C31.7168399,65.2236351 30.8936536,63.4465763 30.8936536,61.4763498 C30.8936536,59.5061233 31.7168399,57.7290645 33.0365108,56.4734084 C34.3561817,57.7290645 35.179368,59.5061233 35.179368,61.4763498 C35.179368,63.4465763 34.3561817,65.2236351 33.0365108,66.4792912 Z" id="Combined-Shape-Copy-3" transform="translate(33.036511, 61.476350) rotate(-252.000000) translate(-33.036511, -61.476350) "></path>
                                <path d="M26.2307367,60.9178369 C24.9110658,59.6621808 24.0878795,57.885122 24.0878795,55.9148955 C24.0878795,53.944669 24.9110658,52.1676102 26.2307367,50.9119541 C27.5504076,52.1676102 28.3735939,53.944669 28.3735939,55.9148955 C28.3735939,57.885122 27.5504076,59.6621808 26.2307367,60.9178369 Z" id="Combined-Shape-Copy-22" transform="translate(26.230737, 55.914896) rotate(5.000000) translate(-26.230737, -55.914896) "></path>
                                <path d="M38.4523825,60.0352965 C37.2060266,58.8394336 36.4285729,57.1469967 36.4285729,55.2705904 C36.4285729,53.3941842 37.2060266,51.7017473 38.4523825,50.5058844 C39.6987383,51.7017473 40.4761921,53.3941842 40.4761921,55.2705904 C40.4761921,57.1469967 39.6987383,58.8394336 38.4523825,60.0352965 Z" id="Combined-Shape-Copy-5" transform="translate(38.452382, 55.270590) rotate(-267.000000) translate(-38.452382, -55.270590) "></path>
                                <path d="M31.478756,56.6201262 C30.2324001,55.4242633 29.4549464,53.7318263 29.4549464,51.8554201 C29.4549464,49.9790139 30.2324001,48.286577 31.478756,47.090714 C32.7251118,48.286577 33.5025656,49.9790139 33.5025656,51.8554201 C33.5025656,53.7318263 32.7251118,55.4242633 31.478756,56.6201262 Z" id="Combined-Shape-Copy-23" transform="translate(31.478756, 51.855420) rotate(-5.000000) translate(-31.478756, -51.855420) "></path>
                                <path d="M41.9047636,53.364708 C40.7317228,52.2585348 40.0000016,50.6930306 40.0000016,48.9573549 C40.0000016,47.2216791 40.7317228,45.656175 41.9047636,44.5500018 C43.0778044,45.656175 43.8095256,47.2216791 43.8095256,48.9573549 C43.8095256,50.6930306 43.0778044,52.2585348 41.9047636,53.364708 Z" id="Combined-Shape-Copy-6" transform="translate(41.904764, 48.957355) rotate(-274.000000) translate(-41.904764, -48.957355) "></path>
                                <path d="M35.7142871,51.4588256 C34.5412463,50.3526524 33.8095252,48.7871482 33.8095252,47.0514725 C33.8095252,45.3157967 34.5412463,43.7502926 35.7142871,42.6441193 C36.8873279,43.7502926 37.6190491,45.3157967 37.6190491,47.0514725 C37.6190491,48.7871482 36.8873279,50.3526524 35.7142871,51.4588256 Z" id="Combined-Shape-Copy-24" transform="translate(35.714287, 47.051472) rotate(-5.000000) translate(-35.714287, -47.051472) "></path>
                                <path d="M44.5327566,44.1853784 C43.4330308,43.1389983 42.7470423,41.658116 42.7470423,40.0162606 C42.7470423,38.3744051 43.4330308,36.8935228 44.5327566,35.8471428 C45.6324824,36.8935228 46.318471,38.3744051 46.318471,40.0162606 C46.318471,41.658116 45.6324824,43.1389983 44.5327566,44.1853784 Z" id="Combined-Shape-Copy-8" transform="translate(44.532757, 40.016261) rotate(-294.000000) translate(-44.532757, -40.016261) "></path>
                                <path d="M38.6725971,45.0102459 C37.5728713,43.9638659 36.8868827,42.4829836 36.8868827,40.8411281 C36.8868827,39.1992727 37.5728713,37.7183904 38.6725971,36.6720103 C39.7723228,37.7183904 40.4583114,39.1992727 40.4583114,40.8411281 C40.4583114,42.4829836 39.7723228,43.9638659 38.6725971,45.0102459 Z" id="Combined-Shape-Copy-25" transform="translate(38.672597, 40.841128) rotate(-10.000000) translate(-38.672597, -40.841128) "></path>
                                <path d="M44.50492,35.8796597 C43.4785093,34.8930727 42.8382533,33.4968123 42.8382533,31.9487771 C42.8382533,30.400742 43.4785093,29.0044816 44.50492,28.0178946 C45.5313307,29.0044816 46.1715867,30.400742 46.1715867,31.9487771 C46.1715867,33.4968123 45.5313307,34.8930727 44.50492,35.8796597 Z" id="Combined-Shape-Copy-9" transform="translate(44.504920, 31.948777) rotate(-314.000000) translate(-44.504920, -31.948777) "></path>
                                <path d="M39.5981392,37.9483631 C38.5717284,36.9617762 37.9314724,35.5655158 37.9314724,34.0174806 C37.9314724,32.4694455 38.5717284,31.073185 39.5981392,30.0865981 C40.6245499,31.073185 41.2648059,32.4694455 41.2648059,34.0174806 C41.2648059,35.5655158 40.6245499,36.9617762 39.5981392,37.9483631 Z" id="Combined-Shape-Copy-26" transform="translate(39.598139, 34.017481) rotate(-30.000000) translate(-39.598139, -34.017481) "></path>
                                <path d="M43.768263,27.9733061 C42.8884824,27.1362021 42.3396915,25.9514962 42.3396915,24.6380119 C42.3396915,23.3245275 42.8884824,22.1398217 43.768263,21.3027176 C44.6480436,22.1398217 45.1968345,23.3245275 45.1968345,24.6380119 C45.1968345,25.9514962 44.6480436,27.1362021 43.768263,27.9733061 Z" id="Combined-Shape-Copy-12" transform="translate(43.768263, 24.638012) rotate(-318.000000) translate(-43.768263, -24.638012) "></path>
                                <path d="M39.4825486,31.5468357 C38.602768,30.7097316 38.0539771,29.5250258 38.0539771,28.2115414 C38.0539771,26.8980571 38.602768,25.7133512 39.4825486,24.8762472 C40.3623292,25.7133512 40.9111201,26.8980571 40.9111201,28.2115414 C40.9111201,29.5250258 40.3623292,30.7097316 39.4825486,31.5468357 Z" id="Combined-Shape-Copy-27" transform="translate(39.482549, 28.211541) rotate(-50.000000) translate(-39.482549, -28.211541) "></path>
                                <path d="M42.0154529,22.5444863 C41.2089873,21.7771409 40.705929,20.6911605 40.705929,19.4871332 C40.705929,18.2831059 41.2089873,17.1971255 42.0154529,16.4297801 C42.8219184,17.1971255 43.3249767,18.2831059 43.3249767,19.4871332 C43.3249767,20.6911605 42.8219184,21.7771409 42.0154529,22.5444863 Z" id="Combined-Shape-Copy-13" transform="translate(42.015453, 19.487133) rotate(-328.000000) translate(-42.015453, -19.487133) "></path>
                                <path d="M38.2059289,26.3562511 C37.3994634,25.5889057 36.8964051,24.5029254 36.8964051,23.2988981 C36.8964051,22.0948707 37.3994634,21.0088904 38.2059289,20.241545 C39.0123945,21.0088904 39.5154528,22.0948707 39.5154528,23.2988981 C39.5154528,24.5029254 39.0123945,25.5889057 38.2059289,26.3562511 Z" id="Combined-Shape-Copy-28" transform="translate(38.205929, 23.298898) rotate(-70.000000) translate(-38.205929, -23.298898) "></path>
                                <path d="M39.6345004,18.2562508 C38.8280348,17.4889054 38.3249765,16.4029251 38.3249765,15.1988977 C38.3249765,13.9948704 38.8280348,12.9088901 39.6345004,12.1415447 C40.440966,12.9088901 40.9440243,13.9948704 40.9440243,15.1988977 C40.9440243,16.4029251 40.440966,17.4889054 39.6345004,18.2562508 Z" id="Combined-Shape-Copy-14" transform="translate(39.634500, 15.198898) rotate(-336.000000) translate(-39.634500, -15.198898) "></path>
                                <path d="M36.5392622,22.0680157 C35.7327966,21.3006703 35.2297383,20.2146899 35.2297383,19.0106626 C35.2297383,17.8066353 35.7327966,16.7206549 36.5392622,15.9533095 C37.3457277,16.7206549 37.848786,17.8066353 37.848786,19.0106626 C37.848786,20.2146899 37.3457277,21.3006703 36.5392622,22.0680157 Z" id="Combined-Shape-Copy-29" transform="translate(36.539262, 19.010663) rotate(-70.000000) translate(-36.539262, -19.010663) "></path>
                                <path d="M36.9047634,14.2941182 C36.1716129,13.606497 35.7142871,12.6333458 35.7142871,11.5544122 C35.7142871,10.4754786 36.1716129,9.50232742 36.9047634,8.81470623 C37.6379139,9.50232742 38.0952396,10.4754786 38.0952396,11.5544122 C38.0952396,12.6333458 37.6379139,13.606497 36.9047634,14.2941182 Z" id="Combined-Shape-Copy-15" transform="translate(36.904763, 11.554412) rotate(-345.000000) translate(-36.904763, -11.554412) "></path>
                                <path d="M34.5238109,18.1058831 C33.7906604,17.4182619 33.3333347,16.4451107 33.3333347,15.3661771 C33.3333347,14.2872435 33.7906604,13.3140923 34.5238109,12.6264711 C35.2569614,13.3140923 35.7142871,14.2872435 35.7142871,15.3661771 C35.7142871,16.4451107 35.2569614,17.4182619 34.5238109,18.1058831 Z" id="Combined-Shape-Copy-30" transform="translate(34.523811, 15.366177) rotate(-80.000000) translate(-34.523811, -15.366177) "></path>
                                <path d="M33.5714299,10.7205887 C32.8382794,10.0329675 32.3809537,9.05981625 32.3809537,7.98088267 C32.3809537,6.90194909 32.8382794,5.92879787 33.5714299,5.24117668 C34.3045804,5.92879787 34.7619061,6.90194909 34.7619061,7.98088267 C34.7619061,9.05981625 34.3045804,10.0329675 33.5714299,10.7205887 Z" id="Combined-Shape-Copy-16" transform="translate(33.571430, 7.980883) rotate(-356.000000) translate(-33.571430, -7.980883) "></path>
                                <path d="M31.9047632,15.0088241 C31.1716127,14.3212029 30.7142869,13.3480517 30.7142869,12.2691181 C30.7142869,11.1901846 31.1716127,10.2170333 31.9047632,9.52941214 C32.6379137,10.2170333 33.0952394,11.1901846 33.0952394,12.2691181 C33.0952394,13.3480517 32.6379137,14.3212029 31.9047632,15.0088241 Z" id="Combined-Shape-Copy-31" transform="translate(31.904763, 12.269118) rotate(-90.000000) translate(-31.904763, -12.269118) "></path>
                                <path d="M29.7619059,7.62352971 C29.0287554,6.93590853 28.5714297,5.9627573 28.5714297,4.88382372 C28.5714297,3.80489015 29.0287554,2.83173892 29.7619059,2.14411773 C30.4950565,2.83173892 30.9523822,3.80489015 30.9523822,4.88382372 C30.9523822,5.9627573 30.4950565,6.93590853 29.7619059,7.62352971 Z" id="Combined-Shape-Copy-17" transform="translate(29.761906, 4.883824) rotate(-366.000000) translate(-29.761906, -4.883824) "></path>
                                <path d="M29.0476202,12.1500005 C28.3144697,11.4623793 27.857144,10.4892281 27.857144,9.41029449 C27.857144,8.33136092 28.3144697,7.35820969 29.0476202,6.6705885 C29.7807707,7.35820969 30.2380964,8.33136092 30.2380964,9.41029449 C30.2380964,10.4892281 29.7807707,11.4623793 29.0476202,12.1500005 Z" id="Combined-Shape-Copy-32" transform="translate(29.047620, 9.410294) rotate(-100.000000) translate(-29.047620, -9.410294) "></path>
                                <path d="M25.8333344,5.24117668 C25.1734989,4.61334864 24.7619057,3.72481926 24.7619057,2.73970599 C24.7619057,1.75459273 25.1734989,0.866063345 25.8333344,0.238235304 C26.4931698,0.866063345 26.904763,1.75459273 26.904763,2.73970599 C26.904763,3.72481926 26.4931698,4.61334864 25.8333344,5.24117668 Z" id="Combined-Shape-Copy-18" transform="translate(25.833334, 2.739706) rotate(-16.000000) translate(-25.833334, -2.739706) "></path>
                                <path d="M25.5952391,9.52941214 C24.9354037,8.9015841 24.5238105,8.01305472 24.5238105,7.02794146 C24.5238105,6.04282819 24.9354037,5.15429881 25.5952391,4.52647077 C26.2550746,5.15429881 26.6666677,6.04282819 26.6666677,7.02794146 C26.6666677,8.01305472 26.2550746,8.9015841 25.5952391,9.52941214 Z" id="Combined-Shape-Copy-33" transform="translate(25.595239, 7.027941) rotate(-110.000000) translate(-25.595239, -7.027941) "></path>
                                <path d="M23.2142866,6.6705885 C22.7010813,6.19224333 22.3809533,5.51526856 22.3809533,4.76470607 C22.3809533,4.01414358 22.7010813,3.33716882 23.2142866,2.85882364 C23.727492,3.33716882 24.04762,4.01414358 24.04762,4.76470607 C24.04762,5.51526856 23.727492,6.19224333 23.2142866,6.6705885 Z" id="Combined-Shape-Copy-34" transform="translate(23.214287, 4.764706) rotate(-100.000000) translate(-23.214287, -4.764706) "></path>
                                <path d="M20.5952389,4.76470607 C19.9354035,4.13687803 19.5238103,3.24834865 19.5238103,2.26323538 C19.5238103,1.27812212 19.9354035,0.389592738 20.5952389,-0.238235303 C21.2550744,0.389592738 21.6666675,1.27812212 21.6666675,2.26323538 C21.6666675,3.24834865 21.2550744,4.13687803 20.5952389,4.76470607 Z" id="Combined-Shape-Copy-19" transform="translate(20.595239, 2.263235) rotate(-66.000000) translate(-20.595239, -2.263235) "></path>
                                <path d="M8.3593536,66.6727316 C7.33608459,66.8643292 6.31688655,67.1297231 5.37161335,67.4796306 C3.2042412,68.2819168 1.78733649,69.3928146 1.40333697,70.7997013 L0.025234513,70.4231156 C0.559654832,68.4651213 2.31955277,67.085306 4.87594788,66.139017 C5.90466872,65.7582201 6.99955606,65.4731171 8.09658534,65.2677085 C8.48061795,65.195802 9.45296332,65.040721 9.4131338,65.0470308 C27.0040591,65.0481336 41.6793636,50.7652682 41.6793636,33.1147072 C41.6793636,28.0840944 40.7249559,23.1859243 38.5816209,18.789646 C35.1309154,11.7117688 28.9775543,5.9347973 21.6062336,3.00046102 L21.8040449,2.74978499 C34.2933486,7.72146085 42.3819771,19.3948169 42.3819771,33.1147072 C42.3819771,51.5406297 27.9565661,66.4581333 9.70304554,66.4676504 C9.61479784,66.4781228 8.71883946,66.6054212 8.3593536,66.6727316 Z" id="Oval-6" fill-rule="nonzero"></path>
                            </g>
                        </g>
                        <path d="M16.1280006,110.061603 C16.1280006,113.316004 13.6800005,114.900004 9.9936004,114.900004 L2.27520009,114.900004 L2.27520009,97.6200029 L9.67680038,97.6200029 C13.4208005,97.6200029 15.6096006,99.232803 15.6096006,102.285603 C15.6096006,104.128803 14.6016006,105.453603 13.0464005,106.029603 L13.0464005,106.116003 C14.8608006,106.605603 16.1280006,107.988003 16.1280006,110.061603 Z M9.9936004,107.210403 L4.63680018,107.210403 L4.63680018,112.740004 L10.0224004,112.740004 C12.0672005,112.740004 13.6512005,111.818403 13.6512005,109.917603 C13.6512005,108.160803 12.0096005,107.210403 9.9936004,107.210403 Z M13.1328005,102.458403 C13.1328005,100.586403 11.8080005,99.780003 9.64800038,99.780003 L4.63680018,99.780003 L4.63680018,105.108003 L9.61920038,105.108003 C11.7792005,105.108003 13.1328005,104.071203 13.1328005,102.458403 Z M30.3840012,105.108003 L30.3840012,107.210403 L22.0032009,107.210403 L22.0032009,112.740004 L31.8240013,112.740004 L31.8240013,114.900004 L19.6416008,114.900004 L19.6416008,97.6200029 L31.8240013,97.6200029 L31.8240013,99.780003 L22.0032009,99.780003 L22.0032009,105.108003 L30.3840012,105.108003 Z M34.0992014,113.200804 L35.3952014,111.415203 C35.3952014,111.415203 37.2384015,113.085604 40.3200016,113.085604 C43.0272017,113.085604 44.1792018,111.962403 44.1792018,110.349603 C44.1792018,108.880803 43.2864017,108.132003 39.8880016,107.124003 C36.0000014,105.943203 34.1856014,104.676003 34.1856014,101.997603 C34.1856014,99.117603 36.4608014,97.2456029 40.4064016,97.2456029 C44.5536018,97.2456029 46.2240018,98.973603 46.2240018,98.973603 L44.9280018,100.932003 C44.9280018,100.932003 43.3440017,99.463203 40.4064016,99.463203 C38.2176015,99.463203 36.7200015,100.356003 36.7200015,101.968803 C36.7200015,103.264803 37.7280015,103.927203 40.9536016,104.877603 C45.2448018,106.116003 46.7424019,107.642403 46.7424019,110.263203 C46.7424019,113.114404 44.6112018,115.303204 40.3776016,115.303204 C36.0864014,115.303204 34.0992014,113.200804 34.0992014,113.200804 Z M48.4704019,99.780003 L48.4704019,97.6200029 L62.0352025,97.6200029 L62.0352025,99.780003 L56.4192022,99.780003 L56.4192022,114.900004 L54.0576021,114.900004 L54.0576021,99.780003 L48.4704019,99.780003 Z M78.7968031,97.6200029 L86.0832034,114.900004 L83.5776033,114.900004 L82.0512033,111.184803 L73.2672029,111.184803 L71.7408029,114.900004 L69.2640028,114.900004 L76.521603,97.6200029 L78.7968031,97.6200029 Z M77.6736031,100.528803 L74.1312029,109.082403 L81.1872032,109.082403 L77.6736031,100.528803 Z M95.4720038,97.6200029 C99.532804,97.6200029 102.038404,99.722403 102.038404,103.380003 C102.038404,107.239203 99.417604,109.341603 95.3568038,109.341603 L90.8928036,109.341603 L90.8928036,114.900004 L88.5312035,114.900004 L88.5312035,97.6200029 L95.4720038,97.6200029 Z M99.619204,103.437603 C99.619204,100.960803 97.9200039,99.780003 95.3568038,99.780003 L90.8928036,99.780003 L90.8928036,107.181603 L95.3568038,107.181603 C97.9488039,107.181603 99.619204,106.087203 99.619204,103.437603 Z M112.089604,97.6200029 C116.150405,97.6200029 118.656005,99.722403 118.656005,103.380003 C118.656005,107.239203 116.035205,109.341603 111.974404,109.341603 L107.510404,109.341603 L107.510404,114.900004 L105.148804,114.900004 L105.148804,97.6200029 L112.089604,97.6200029 Z M116.236805,103.437603 C116.236805,100.960803 114.537605,99.780003 111.974404,99.780003 L107.510404,99.780003 L107.510404,107.181603 L111.974404,107.181603 C114.566405,107.181603 116.236805,106.087203 116.236805,103.437603 Z M135.532805,115.303204 C130.348805,115.303204 126.979205,111.300003 126.979205,106.288803 C126.979205,101.220003 130.348805,97.2456029 135.532805,97.2456029 C140.803206,97.2456029 144.172806,101.220003 144.172806,106.288803 C144.172806,111.300003 140.803206,115.303204 135.532805,115.303204 Z M135.532805,113.028004 C139.305606,113.028004 141.724806,110.032803 141.724806,106.288803 C141.724806,102.516003 139.305606,99.492003 135.532805,99.492003 C131.817605,99.492003 129.427205,102.516003 129.427205,106.288803 C129.427205,110.032803 131.817605,113.028004 135.532805,113.028004 Z M158.313606,105.108003 L158.313606,107.210403 L149.932806,107.210403 L149.932806,114.900004 L147.571206,114.900004 L147.571206,97.6200029 L159.782406,97.6200029 L159.782406,99.780003 L149.932806,99.780003 L149.932806,105.108003 L158.313606,105.108003 Z M168.249607,114.900004 L168.249607,113.258404 L175.363207,106.000803 C176.688007,104.647203 177.062407,103.869603 177.062407,102.717603 C177.062407,100.932003 175.708807,99.520803 173.548807,99.520803 C171.187207,99.520803 169.574407,101.277603 169.286407,101.536803 L168.019207,99.636003 C168.019207,99.636003 170.064007,97.2456029 173.664007,97.2456029 C177.609607,97.2456029 179.654407,99.549603 179.654407,102.544803 C179.654407,104.186403 179.164807,105.453603 177.782407,106.864803 L171.993607,112.740004 L180.028807,112.740004 L180.028807,114.900004 L168.249607,114.900004 Z M189.964808,115.303204 C185.212807,115.303204 182.563207,111.213603 182.563207,106.288803 C182.563207,101.306403 185.212807,97.2456029 189.964808,97.2456029 C194.716808,97.2456029 197.337608,101.306403 197.337608,106.288803 C197.337608,111.213603 194.716808,115.303204 189.964808,115.303204 Z M189.964808,113.028004 C193.190408,113.028004 194.918408,110.032803 194.918408,106.288803 C194.918408,102.516003 193.190408,99.492003 189.964808,99.492003 C186.710407,99.492003 184.982407,102.516003 184.982407,106.288803 C184.982407,110.032803 186.710407,113.028004 189.964808,113.028004 Z M199.065608,99.780003 L199.065608,97.6200029 L205.315208,97.6200029 L205.315208,114.900004 L202.924808,114.900004 L202.924808,99.780003 L199.065608,99.780003 Z M211.190408,105.972003 L211.190408,106.087203 C212.140808,104.877603 213.638408,104.100003 215.539209,104.100003 C219.024009,104.100003 221.385609,106.461603 221.385609,109.456803 C221.385609,112.653604 218.880009,115.188004 215.337609,115.188004 C211.708808,115.188004 208.684808,112.884004 208.684808,106.432803 C208.684808,100.413603 211.564808,97.2744029 215.683209,97.2744029 C219.369609,97.2744029 220.752009,99.636003 220.752009,99.636003 L219.369609,101.421603 C219.168009,101.248803 218.016009,99.520803 215.683209,99.520803 C213.062408,99.520803 211.190408,101.306403 211.190408,105.972003 Z M215.395209,106.231203 C213.264008,106.231203 211.737608,107.527203 211.420808,109.485603 C211.968008,111.991203 213.494408,112.999204 215.308809,112.999204 C217.440009,112.999204 218.937609,111.415203 218.937609,109.485603 C218.937609,107.584803 217.526409,106.231203 215.395209,106.231203 Z" id="BESTAPPOF2016" fill="#A28F6E" fill-rule="nonzero"></path>
                    </g>
                </g>
            </g>
        </g>
    </g>
</svg>