<?xml version="1.0" encoding="UTF-8"?>
<svg width="202px" height="145px" viewBox="0 0 202 145" version="1.1" xmlns="http://www.w3.org/2000/svg" xmlns:xlink="http://www.w3.org/1999/xlink">
    <!-- Generator: Sketch 54.1 (76490) - https://sketchapp.com -->
    <title>Group 24</title>
    <desc>Created with Sketch.</desc>
    <g id="v5" stroke="none" stroke-width="1" fill="none" fill-rule="evenodd">
        <g id="PrismaLabs-Landing-Copy-3" transform="translate(-421.000000, -1802.000000)">
            <g id="Group-2-Copy" transform="translate(0.000000, 1482.000000)">
                <g id="Group-5" transform="translate(421.000000, 317.000000)">
                    <g id="Group-24" transform="translate(0.000000, 3.400000)">
                        <g id="Group-18" transform="translate(0.000000, 85.100004)" fill="#A28F6E" fill-rule="nonzero">
                            <path d="M56.7792023,46.0400009 L62.2440025,59.0000014 L60.3648024,59.0000014 L59.2200024,56.2136013 L52.6320021,56.2136013 L51.487202,59.0000014 L49.629602,59.0000014 L55.0728022,46.0400009 L56.7792023,46.0400009 Z M55.9368022,48.221601 L53.2800021,54.6368013 L58.5720023,54.6368013 L55.9368022,48.221601 Z M69.2856028,46.0400009 C72.3312029,46.0400009 74.2104029,47.616801 74.2104029,50.3600011 C74.2104029,53.2544012 72.2448029,54.8312013 69.1992027,54.8312013 L65.8512026,54.8312013 L65.8512026,59.0000014 L64.0800025,59.0000014 L64.0800025,46.0400009 L69.2856028,46.0400009 Z M72.3960029,50.4032011 C72.3960029,48.545601 71.1216028,47.660001 69.1992027,47.660001 L65.8512026,47.660001 L65.8512026,53.2112012 L69.1992027,53.2112012 C71.1432028,53.2112012 72.3960029,52.3904012 72.3960029,50.4032011 Z M81.7488032,46.0400009 C84.7944034,46.0400009 86.6736034,47.616801 86.6736034,50.3600011 C86.6736034,53.2544012 84.7080034,54.8312013 81.6624032,54.8312013 L78.3144031,54.8312013 L78.3144031,59.0000014 L76.543203,59.0000014 L76.543203,46.0400009 L81.7488032,46.0400009 Z M84.8592034,50.4032011 C84.8592034,48.545601 83.5848033,47.660001 81.6624032,47.660001 L78.3144031,47.660001 L78.3144031,53.2112012 L81.6624032,53.2112012 C83.6064033,53.2112012 84.8592034,52.3904012 84.8592034,50.4032011 Z M92.8944037,57.7256014 L93.8664037,56.3864013 C93.8664037,56.3864013 95.2488038,57.6392014 97.5600039,57.6392014 C99.590404,57.6392014 100.454404,56.7968013 100.454404,55.5872013 C100.454404,54.4856013 99.784804,53.9240012 97.2360039,53.1680012 C94.3200037,52.2824012 92.9592037,51.3320011 92.9592037,49.323201 C92.9592037,47.163201 94.6656038,45.7592009 97.6248039,45.7592009 C100.735204,45.7592009 101.988004,47.055201 101.988004,47.055201 L101.016004,48.524001 C101.016004,48.524001 99.828004,47.422401 97.6248039,47.422401 C95.9832038,47.422401 94.8600038,48.092001 94.8600038,49.301601 C94.8600038,50.2736011 95.6160038,50.7704011 98.0352039,51.4832011 C101.253604,52.4120012 102.376804,53.5568012 102.376804,55.5224013 C102.376804,57.6608014 100.778404,59.3024014 97.6032039,59.3024014 C94.3848038,59.3024014 92.8944037,57.7256014 92.8944037,57.7256014 Z M103.672804,47.660001 L103.672804,46.0400009 L113.846405,46.0400009 L113.846405,47.660001 L109.634404,47.660001 L109.634404,59.0000014 L107.863204,59.0000014 L107.863204,47.660001 L103.672804,47.660001 Z M121.665605,59.3024014 C117.777605,59.3024014 115.250405,56.3000013 115.250405,52.5416012 C115.250405,48.740001 117.777605,45.7592009 121.665605,45.7592009 C125.618405,45.7592009 128.145605,48.740001 128.145605,52.5416012 C128.145605,56.3000013 125.618405,59.3024014 121.665605,59.3024014 Z M121.665605,57.5960014 C124.495205,57.5960014 126.309605,55.3496013 126.309605,52.5416012 C126.309605,49.7120011 124.495205,47.444001 121.665605,47.444001 C118.879205,47.444001 117.086405,49.7120011 117.086405,52.5416012 C117.086405,55.3496013 118.879205,57.5960014 121.665605,57.5960014 Z M130.694405,46.0400009 L135.878405,46.0400009 C138.945606,46.0400009 140.824806,47.616801 140.824806,50.3600011 C140.824806,52.4552012 139.701606,53.8376012 137.973605,54.3992012 L137.973605,54.4856013 L141.148806,58.6544014 L141.148806,59.0000014 L139.226406,59.0000014 L135.986405,54.7016013 L132.465605,54.7016013 L132.465605,59.0000014 L130.694405,59.0000014 L130.694405,46.0400009 Z M138.988806,50.4032011 C138.988806,48.545601 137.736005,47.660001 135.813605,47.660001 L132.465605,47.660001 L132.465605,53.1032012 L135.964805,53.1032012 C137.736005,53.1032012 138.988806,52.2392012 138.988806,50.4032011 Z M151.668006,51.6560011 L151.668006,53.2328012 L145.382406,53.2328012 L145.382406,57.3800014 L152.748006,57.3800014 L152.748006,59.0000014 L143.611206,59.0000014 L143.611206,46.0400009 L152.748006,46.0400009 L152.748006,47.660001 L145.382406,47.660001 L145.382406,51.6560011 L151.668006,51.6560011 Z" id="APPSTORE"></path>
                            <g id="Group-6">
                                <path d="M9.70560039,12.7199993 L16.9920007,30 L14.4864006,30 L12.9600005,26.2847999 L4.17600017,26.2847999 L2.64960011,30 L0.172800007,30 L7.4304003,12.7199993 L9.70560039,12.7199993 Z M8.58240034,15.6287994 L5.0400002,24.1823998 L12.0960005,24.1823998 L8.58240034,15.6287994 Z M26.380801,12.7199993 C30.4416012,12.7199993 32.9472013,14.8223994 32.9472013,18.4799995 C32.9472013,22.3391997 30.3264012,24.4415998 26.265601,24.4415998 L21.8016009,24.4415998 L21.8016009,30 L19.4400008,30 L19.4400008,12.7199993 L26.380801,12.7199993 Z M30.5280012,18.5375995 C30.5280012,16.0607994 28.8288011,14.8799994 26.265601,14.8799994 L21.8016009,14.8799994 L21.8016009,22.2815997 L26.265601,22.2815997 C28.8576011,22.2815997 30.5280012,21.1871996 30.5280012,18.5375995 Z M42.9984017,12.7199993 C47.0592019,12.7199993 49.564802,14.8223994 49.564802,18.4799995 C49.564802,22.3391997 46.9440019,24.4415998 42.8832017,24.4415998 L38.4192015,24.4415998 L38.4192015,30 L36.0576014,30 L36.0576014,12.7199993 L42.9984017,12.7199993 Z M47.1456019,18.5375995 C47.1456019,16.0607994 45.4464018,14.8799994 42.8832017,14.8799994 L38.4192015,14.8799994 L38.4192015,22.2815997 L42.8832017,22.2815997 C45.4752018,22.2815997 47.1456019,21.1871996 47.1456019,18.5375995 Z M84.0384033,20.0351996 L88.2144035,12.7199993 L90.9216036,12.7199993 L84.6144034,23.3759997 L84.6144034,30 L82.2240033,30 L82.2240033,23.3759997 L75.916803,12.7199993 L78.6240031,12.7199993 L82.8576033,20.0351996 L83.4048033,21.2447997 L83.4624033,21.2447997 L84.0384033,20.0351996 Z M104.112004,20.2079996 L104.112004,22.3103997 L95.7312038,22.3103997 L95.7312038,27.8399999 L105.552004,27.8399999 L105.552004,30 L93.3696037,30 L93.3696037,12.7199993 L105.552004,12.7199993 L105.552004,14.8799994 L95.7312038,14.8799994 L95.7312038,20.2079996 L104.112004,20.2079996 Z M116.409605,12.7199993 L123.696005,30 L121.190405,30 L119.664005,26.2847999 L110.880004,26.2847999 L109.353604,30 L106.876804,30 L114.134405,12.7199993 L116.409605,12.7199993 Z M115.286405,15.6287994 L111.744004,24.1823998 L118.800005,24.1823998 L115.286405,15.6287994 Z M126.144005,12.7199993 L133.056005,12.7199993 C137.145605,12.7199993 139.651206,14.8223994 139.651206,18.4799995 C139.651206,21.2735997 138.153605,23.1167997 135.849605,23.8655998 L135.849605,23.9807998 L140.083206,29.5392 L140.083206,30 L137.520005,30 L133.200005,24.2687998 L128.505605,24.2687998 L128.505605,30 L126.144005,30 L126.144005,12.7199993 Z M137.203205,18.5375995 C137.203205,16.0607994 135.532805,14.8799994 132.969605,14.8799994 L128.505605,14.8799994 L128.505605,22.1375997 L133.171205,22.1375997 C135.532805,22.1375997 137.203205,20.9855996 137.203205,18.5375995 Z M148.723206,30 L148.723206,28.3583999 L155.836806,21.1007996 C157.161606,19.7471996 157.536006,18.9695996 157.536006,17.8175995 C157.536006,16.0319994 156.182406,14.6207994 154.022406,14.6207994 C151.660806,14.6207994 150.048006,16.3775995 149.760006,16.6367995 L148.492806,14.7359994 C148.492806,14.7359994 150.537606,12.3455993 154.137606,12.3455993 C158.083206,12.3455993 160.128006,14.6495994 160.128006,17.6447995 C160.128006,19.2863996 159.638406,20.5535996 158.256006,21.9647997 L152.467206,27.8399999 L160.502406,27.8399999 L160.502406,30 L148.723206,30 Z M170.438407,30.4032 C165.686407,30.4032 163.036806,26.3135999 163.036806,21.3887997 C163.036806,16.4063995 165.686407,12.3455993 170.438407,12.3455993 C175.190407,12.3455993 177.811207,16.4063995 177.811207,21.3887997 C177.811207,26.3135999 175.190407,30.4032 170.438407,30.4032 Z M170.438407,28.1279999 C173.664007,28.1279999 175.392007,25.1327998 175.392007,21.3887997 C175.392007,17.6159995 173.664007,14.5919994 170.438407,14.5919994 C167.184007,14.5919994 165.456007,17.6159995 165.456007,21.3887997 C165.456007,25.1327998 167.184007,28.1279999 170.438407,28.1279999 Z M179.539207,14.8799994 L179.539207,12.7199993 L185.788807,12.7199993 L185.788807,30 L183.398407,30 L183.398407,14.8799994 L179.539207,14.8799994 Z M191.664008,21.0719996 L191.664008,21.1871996 C192.614408,19.9775996 194.112008,19.1999996 196.012808,19.1999996 C199.497608,19.1999996 201.859208,21.5615997 201.859208,24.5567998 C201.859208,27.7535999 199.353608,30.288 195.811208,30.288 C192.182408,30.288 189.158408,27.9839999 189.158408,21.5327997 C189.158408,15.5135994 192.038408,12.3743993 196.156808,12.3743993 C199.843208,12.3743993 201.225608,14.7359994 201.225608,14.7359994 L199.843208,16.5215995 C199.641608,16.3487995 198.489608,14.6207994 196.156808,14.6207994 C193.536008,14.6207994 191.664008,16.4063995 191.664008,21.0719996 Z M195.868808,21.3311997 C193.737608,21.3311997 192.211208,22.6271997 191.894408,24.5855998 C192.441608,27.0911999 193.968008,28.0991999 195.782408,28.0991999 C197.913608,28.0991999 199.411208,26.5151999 199.411208,24.5855998 C199.411208,22.6847997 198.000008,21.3311997 195.868808,21.3311997 Z" id="APPYEAR2016"></path>
                                <path d="M57.6396023,19.6511963 C55.6956022,19.6511963 54.4320022,18.1499962 54.4320022,16.2707961 C54.4320022,14.369996 55.6956022,12.879596 57.6396023,12.879596 C59.6160024,12.879596 60.8796024,14.369996 60.8796024,16.2707961 C60.8796024,18.1499962 59.6160024,19.6511963 57.6396023,19.6511963 Z M57.6396023,18.7979962 C59.0544023,18.7979962 59.9616024,17.6747962 59.9616024,16.2707961 C59.9616024,14.8559961 59.0544023,13.721996 57.6396023,13.721996 C56.2464022,13.721996 55.3500022,14.8559961 55.3500022,16.2707961 C55.3500022,17.6747962 56.2464022,18.7979962 57.6396023,18.7979962 Z M66.1824026,15.8279961 L66.1824026,16.6163961 L63.0396025,16.6163961 L63.0396025,19.4999962 L62.1540025,19.4999962 L62.1540025,13.019996 L66.7332027,13.019996 L66.7332027,13.829996 L63.0396025,13.829996 L63.0396025,15.8279961 L66.1824026,15.8279961 Z" id="OF"></path>
                                <path d="M55.1700022,24.6299964 L55.1700022,23.8199964 L60.2568024,23.8199964 L60.2568024,24.6299964 L58.1508023,24.6299964 L58.1508023,30.2999967 L57.2652023,30.2999967 L57.2652023,24.6299964 L55.1700022,24.6299964 Z M66.6612026,23.8199964 L66.6612026,30.2999967 L65.7648026,30.2999967 L65.7648026,27.4919966 L62.2656025,27.4919966 L62.2656025,30.2999967 L61.3800024,30.2999967 L61.3800024,23.8199964 L62.2656025,23.8199964 L62.2656025,26.7035965 L65.7648026,26.7035965 L65.7648026,23.8199964 L66.6612026,23.8199964 Z M72.3960029,26.6279965 L72.3960029,27.4163966 L69.2532028,27.4163966 L69.2532028,29.4899966 L72.9360029,29.4899966 L72.9360029,30.2999967 L68.3676027,30.2999967 L68.3676027,23.8199964 L72.9360029,23.8199964 L72.9360029,24.6299964 L69.2532028,24.6299964 L69.2532028,26.6279965 L72.3960029,26.6279965 Z" id="THE"></path>
                            </g>
                        </g>
                        <g id="Group-26-Copy-2" transform="translate(55.800002, 0.000000)" fill="#E5C895">
                            <g id="Group-24-Copy-3" transform="translate(41.614287, 0.000000)">
                                <path d="M18.2586992,73.4465692 C16.9390283,72.1909131 16.1158419,70.4138543 16.1158419,68.4436278 C16.1158419,66.4734012 16.9390283,64.6963425 18.2586992,63.4406864 C19.5783701,64.6963425 20.4015564,66.4734012 20.4015564,68.4436278 C20.4015564,70.4138543 19.5783701,72.1909131 18.2586992,73.4465692 Z" id="Combined-Shape" transform="translate(18.258699, 68.443628) rotate(-240.000000) translate(-18.258699, -68.443628) "></path>
                                <path d="M11.8189663,66.4227963 C10.4992954,65.1671402 9.6761091,63.3900814 9.6761091,61.4198549 C9.6761091,59.4496284 10.4992954,57.6725696 11.8189663,56.4169135 C13.1386372,57.6725696 13.9618236,59.4496284 13.9618236,61.4198549 C13.9618236,63.3900814 13.1386372,65.1671402 11.8189663,66.4227963 Z" id="Combined-Shape-Copy-20" transform="translate(11.818966, 61.419855) rotate(20.000000) translate(-11.818966, -61.419855) "></path>
                                <path d="M19.6452107,64.8580835 C18.3255397,63.6024274 17.5023534,61.8253686 17.5023534,59.8551421 C17.5023534,57.8849156 18.3255397,56.1078568 19.6452107,54.8522007 C20.9648816,56.1078568 21.7880679,57.8849156 21.7880679,59.8551421 C21.7880679,61.8253686 20.9648816,63.6024274 19.6452107,64.8580835 Z" id="Combined-Shape-Copy-21" transform="translate(19.645211, 59.855142) rotate(10.000000) translate(-19.645211, -59.855142) "></path>
                                <path d="M26.6666677,70.5176499 C25.3469968,69.2619938 24.5238105,67.484935 24.5238105,65.5147085 C24.5238105,63.544482 25.3469968,61.7674232 26.6666677,60.5117671 C27.9863386,61.7674232 28.809525,63.544482 28.809525,65.5147085 C28.809525,67.484935 27.9863386,69.2619938 26.6666677,70.5176499 Z" id="Combined-Shape-Copy-2" transform="translate(26.666668, 65.514708) rotate(-246.000000) translate(-26.666668, -65.514708) "></path>
                                <path d="M33.0365108,66.4792912 C31.7168399,65.2236351 30.8936536,63.4465763 30.8936536,61.4763498 C30.8936536,59.5061233 31.7168399,57.7290645 33.0365108,56.4734084 C34.3561817,57.7290645 35.179368,59.5061233 35.179368,61.4763498 C35.179368,63.4465763 34.3561817,65.2236351 33.0365108,66.4792912 Z" id="Combined-Shape-Copy-3" transform="translate(33.036511, 61.476350) rotate(-252.000000) translate(-33.036511, -61.476350) "></path>
                                <path d="M26.2307367,60.9178369 C24.9110658,59.6621808 24.0878795,57.885122 24.0878795,55.9148955 C24.0878795,53.944669 24.9110658,52.1676102 26.2307367,50.9119541 C27.5504076,52.1676102 28.3735939,53.944669 28.3735939,55.9148955 C28.3735939,57.885122 27.5504076,59.6621808 26.2307367,60.9178369 Z" id="Combined-Shape-Copy-22" transform="translate(26.230737, 55.914896) rotate(5.000000) translate(-26.230737, -55.914896) "></path>
                                <path d="M38.4523825,60.0352965 C37.2060266,58.8394336 36.4285729,57.1469967 36.4285729,55.2705904 C36.4285729,53.3941842 37.2060266,51.7017473 38.4523825,50.5058844 C39.6987383,51.7017473 40.4761921,53.3941842 40.4761921,55.2705904 C40.4761921,57.1469967 39.6987383,58.8394336 38.4523825,60.0352965 Z" id="Combined-Shape-Copy-5" transform="translate(38.452382, 55.270590) rotate(-267.000000) translate(-38.452382, -55.270590) "></path>
                                <path d="M31.478756,56.6201262 C30.2324001,55.4242633 29.4549464,53.7318263 29.4549464,51.8554201 C29.4549464,49.9790139 30.2324001,48.286577 31.478756,47.090714 C32.7251118,48.286577 33.5025656,49.9790139 33.5025656,51.8554201 C33.5025656,53.7318263 32.7251118,55.4242633 31.478756,56.6201262 Z" id="Combined-Shape-Copy-23" transform="translate(31.478756, 51.855420) rotate(-5.000000) translate(-31.478756, -51.855420) "></path>
                                <path d="M41.9047636,53.364708 C40.7317228,52.2585348 40.0000016,50.6930306 40.0000016,48.9573549 C40.0000016,47.2216791 40.7317228,45.656175 41.9047636,44.5500018 C43.0778044,45.656175 43.8095256,47.2216791 43.8095256,48.9573549 C43.8095256,50.6930306 43.0778044,52.2585348 41.9047636,53.364708 Z" id="Combined-Shape-Copy-6" transform="translate(41.904764, 48.957355) rotate(-274.000000) translate(-41.904764, -48.957355) "></path>
                                <path d="M35.7142871,51.4588256 C34.5412463,50.3526524 33.8095252,48.7871482 33.8095252,47.0514725 C33.8095252,45.3157967 34.5412463,43.7502926 35.7142871,42.6441193 C36.8873279,43.7502926 37.6190491,45.3157967 37.6190491,47.0514725 C37.6190491,48.7871482 36.8873279,50.3526524 35.7142871,51.4588256 Z" id="Combined-Shape-Copy-24" transform="translate(35.714287, 47.051472) rotate(-5.000000) translate(-35.714287, -47.051472) "></path>
                                <path d="M44.5327566,44.1853784 C43.4330308,43.1389983 42.7470423,41.658116 42.7470423,40.0162606 C42.7470423,38.3744051 43.4330308,36.8935228 44.5327566,35.8471428 C45.6324824,36.8935228 46.318471,38.3744051 46.318471,40.0162606 C46.318471,41.658116 45.6324824,43.1389983 44.5327566,44.1853784 Z" id="Combined-Shape-Copy-8" transform="translate(44.532757, 40.016261) rotate(-294.000000) translate(-44.532757, -40.016261) "></path>
                                <path d="M38.6725971,45.0102459 C37.5728713,43.9638659 36.8868827,42.4829836 36.8868827,40.8411281 C36.8868827,39.1992727 37.5728713,37.7183904 38.6725971,36.6720103 C39.7723228,37.7183904 40.4583114,39.1992727 40.4583114,40.8411281 C40.4583114,42.4829836 39.7723228,43.9638659 38.6725971,45.0102459 Z" id="Combined-Shape-Copy-25" transform="translate(38.672597, 40.841128) rotate(-10.000000) translate(-38.672597, -40.841128) "></path>
                                <path d="M44.50492,35.8796597 C43.4785093,34.8930727 42.8382533,33.4968123 42.8382533,31.9487771 C42.8382533,30.400742 43.4785093,29.0044816 44.50492,28.0178946 C45.5313307,29.0044816 46.1715867,30.400742 46.1715867,31.9487771 C46.1715867,33.4968123 45.5313307,34.8930727 44.50492,35.8796597 Z" id="Combined-Shape-Copy-9" transform="translate(44.504920, 31.948777) rotate(-314.000000) translate(-44.504920, -31.948777) "></path>
                                <path d="M39.5981392,37.9483631 C38.5717284,36.9617762 37.9314724,35.5655158 37.9314724,34.0174806 C37.9314724,32.4694455 38.5717284,31.073185 39.5981392,30.0865981 C40.6245499,31.073185 41.2648059,32.4694455 41.2648059,34.0174806 C41.2648059,35.5655158 40.6245499,36.9617762 39.5981392,37.9483631 Z" id="Combined-Shape-Copy-26" transform="translate(39.598139, 34.017481) rotate(-30.000000) translate(-39.598139, -34.017481) "></path>
                                <path d="M43.768263,27.9733061 C42.8884824,27.1362021 42.3396915,25.9514962 42.3396915,24.6380119 C42.3396915,23.3245275 42.8884824,22.1398217 43.768263,21.3027176 C44.6480436,22.1398217 45.1968345,23.3245275 45.1968345,24.6380119 C45.1968345,25.9514962 44.6480436,27.1362021 43.768263,27.9733061 Z" id="Combined-Shape-Copy-12" transform="translate(43.768263, 24.638012) rotate(-318.000000) translate(-43.768263, -24.638012) "></path>
                                <path d="M39.4825486,31.5468357 C38.602768,30.7097316 38.0539771,29.5250258 38.0539771,28.2115414 C38.0539771,26.8980571 38.602768,25.7133512 39.4825486,24.8762472 C40.3623292,25.7133512 40.9111201,26.8980571 40.9111201,28.2115414 C40.9111201,29.5250258 40.3623292,30.7097316 39.4825486,31.5468357 Z" id="Combined-Shape-Copy-27" transform="translate(39.482549, 28.211541) rotate(-50.000000) translate(-39.482549, -28.211541) "></path>
                                <path d="M42.0154529,22.5444863 C41.2089873,21.7771409 40.705929,20.6911605 40.705929,19.4871332 C40.705929,18.2831059 41.2089873,17.1971255 42.0154529,16.4297801 C42.8219184,17.1971255 43.3249767,18.2831059 43.3249767,19.4871332 C43.3249767,20.6911605 42.8219184,21.7771409 42.0154529,22.5444863 Z" id="Combined-Shape-Copy-13" transform="translate(42.015453, 19.487133) rotate(-328.000000) translate(-42.015453, -19.487133) "></path>
                                <path d="M38.2059289,26.3562511 C37.3994634,25.5889057 36.8964051,24.5029254 36.8964051,23.2988981 C36.8964051,22.0948707 37.3994634,21.0088904 38.2059289,20.241545 C39.0123945,21.0088904 39.5154528,22.0948707 39.5154528,23.2988981 C39.5154528,24.5029254 39.0123945,25.5889057 38.2059289,26.3562511 Z" id="Combined-Shape-Copy-28" transform="translate(38.205929, 23.298898) rotate(-70.000000) translate(-38.205929, -23.298898) "></path>
                                <path d="M39.6345004,18.2562508 C38.8280348,17.4889054 38.3249765,16.4029251 38.3249765,15.1988977 C38.3249765,13.9948704 38.8280348,12.9088901 39.6345004,12.1415447 C40.440966,12.9088901 40.9440243,13.9948704 40.9440243,15.1988977 C40.9440243,16.4029251 40.440966,17.4889054 39.6345004,18.2562508 Z" id="Combined-Shape-Copy-14" transform="translate(39.634500, 15.198898) rotate(-336.000000) translate(-39.634500, -15.198898) "></path>
                                <path d="M36.5392622,22.0680157 C35.7327966,21.3006703 35.2297383,20.2146899 35.2297383,19.0106626 C35.2297383,17.8066353 35.7327966,16.7206549 36.5392622,15.9533095 C37.3457277,16.7206549 37.848786,17.8066353 37.848786,19.0106626 C37.848786,20.2146899 37.3457277,21.3006703 36.5392622,22.0680157 Z" id="Combined-Shape-Copy-29" transform="translate(36.539262, 19.010663) rotate(-70.000000) translate(-36.539262, -19.010663) "></path>
                                <path d="M36.9047634,14.2941182 C36.1716129,13.606497 35.7142871,12.6333458 35.7142871,11.5544122 C35.7142871,10.4754786 36.1716129,9.50232742 36.9047634,8.81470623 C37.6379139,9.50232742 38.0952396,10.4754786 38.0952396,11.5544122 C38.0952396,12.6333458 37.6379139,13.606497 36.9047634,14.2941182 Z" id="Combined-Shape-Copy-15" transform="translate(36.904763, 11.554412) rotate(-345.000000) translate(-36.904763, -11.554412) "></path>
                                <path d="M34.5238109,18.1058831 C33.7906604,17.4182619 33.3333347,16.4451107 33.3333347,15.3661771 C33.3333347,14.2872435 33.7906604,13.3140923 34.5238109,12.6264711 C35.2569614,13.3140923 35.7142871,14.2872435 35.7142871,15.3661771 C35.7142871,16.4451107 35.2569614,17.4182619 34.5238109,18.1058831 Z" id="Combined-Shape-Copy-30" transform="translate(34.523811, 15.366177) rotate(-80.000000) translate(-34.523811, -15.366177) "></path>
                                <path d="M33.5714299,10.7205887 C32.8382794,10.0329675 32.3809537,9.05981625 32.3809537,7.98088267 C32.3809537,6.90194909 32.8382794,5.92879787 33.5714299,5.24117668 C34.3045804,5.92879787 34.7619061,6.90194909 34.7619061,7.98088267 C34.7619061,9.05981625 34.3045804,10.0329675 33.5714299,10.7205887 Z" id="Combined-Shape-Copy-16" transform="translate(33.571430, 7.980883) rotate(-356.000000) translate(-33.571430, -7.980883) "></path>
                                <path d="M31.9047632,15.0088241 C31.1716127,14.3212029 30.7142869,13.3480517 30.7142869,12.2691181 C30.7142869,11.1901846 31.1716127,10.2170333 31.9047632,9.52941214 C32.6379137,10.2170333 33.0952394,11.1901846 33.0952394,12.2691181 C33.0952394,13.3480517 32.6379137,14.3212029 31.9047632,15.0088241 Z" id="Combined-Shape-Copy-31" transform="translate(31.904763, 12.269118) rotate(-90.000000) translate(-31.904763, -12.269118) "></path>
                                <path d="M29.7619059,7.62352971 C29.0287554,6.93590853 28.5714297,5.9627573 28.5714297,4.88382372 C28.5714297,3.80489015 29.0287554,2.83173892 29.7619059,2.14411773 C30.4950565,2.83173892 30.9523822,3.80489015 30.9523822,4.88382372 C30.9523822,5.9627573 30.4950565,6.93590853 29.7619059,7.62352971 Z" id="Combined-Shape-Copy-17" transform="translate(29.761906, 4.883824) rotate(-366.000000) translate(-29.761906, -4.883824) "></path>
                                <path d="M29.0476202,12.1500005 C28.3144697,11.4623793 27.857144,10.4892281 27.857144,9.41029449 C27.857144,8.33136092 28.3144697,7.35820969 29.0476202,6.6705885 C29.7807707,7.35820969 30.2380964,8.33136092 30.2380964,9.41029449 C30.2380964,10.4892281 29.7807707,11.4623793 29.0476202,12.1500005 Z" id="Combined-Shape-Copy-32" transform="translate(29.047620, 9.410294) rotate(-100.000000) translate(-29.047620, -9.410294) "></path>
                                <path d="M25.8333344,5.24117668 C25.1734989,4.61334864 24.7619057,3.72481926 24.7619057,2.73970599 C24.7619057,1.75459273 25.1734989,0.866063345 25.8333344,0.238235304 C26.4931698,0.866063345 26.904763,1.75459273 26.904763,2.73970599 C26.904763,3.72481926 26.4931698,4.61334864 25.8333344,5.24117668 Z" id="Combined-Shape-Copy-18" transform="translate(25.833334, 2.739706) rotate(-16.000000) translate(-25.833334, -2.739706) "></path>
                                <path d="M25.5952391,9.52941214 C24.9354037,8.9015841 24.5238105,8.01305472 24.5238105,7.02794146 C24.5238105,6.04282819 24.9354037,5.15429881 25.5952391,4.52647077 C26.2550746,5.15429881 26.6666677,6.04282819 26.6666677,7.02794146 C26.6666677,8.01305472 26.2550746,8.9015841 25.5952391,9.52941214 Z" id="Combined-Shape-Copy-33" transform="translate(25.595239, 7.027941) rotate(-110.000000) translate(-25.595239, -7.027941) "></path>
                                <path d="M23.2142866,6.6705885 C22.7010813,6.19224333 22.3809533,5.51526856 22.3809533,4.76470607 C22.3809533,4.01414358 22.7010813,3.33716882 23.2142866,2.85882364 C23.727492,3.33716882 24.04762,4.01414358 24.04762,4.76470607 C24.04762,5.51526856 23.727492,6.19224333 23.2142866,6.6705885 Z" id="Combined-Shape-Copy-34" transform="translate(23.214287, 4.764706) rotate(-100.000000) translate(-23.214287, -4.764706) "></path>
                                <path d="M20.5952389,4.76470607 C19.9354035,4.13687803 19.5238103,3.24834865 19.5238103,2.26323538 C19.5238103,1.27812212 19.9354035,0.389592738 20.5952389,-0.238235303 C21.2550744,0.389592738 21.6666675,1.27812212 21.6666675,2.26323538 C21.6666675,3.24834865 21.2550744,4.13687803 20.5952389,4.76470607 Z" id="Combined-Shape-Copy-19" transform="translate(20.595239, 2.263235) rotate(-66.000000) translate(-20.595239, -2.263235) "></path>
                                <path d="M8.3593536,66.6727316 C7.33608459,66.8643292 6.31688655,67.1297231 5.37161335,67.4796306 C3.2042412,68.2819168 1.78733649,69.3928146 1.40333697,70.7997013 L0.025234513,70.4231156 C0.559654832,68.4651213 2.31955277,67.085306 4.87594788,66.139017 C5.90466872,65.7582201 6.99955606,65.4731171 8.09658534,65.2677085 C8.48061795,65.195802 9.45296332,65.040721 9.4131338,65.0470308 C27.0040591,65.0481336 41.6793636,50.7652682 41.6793636,33.1147072 C41.6793636,28.0840944 40.7249559,23.1859243 38.5816209,18.789646 C35.1309154,11.7117688 28.9775543,5.9347973 21.6062336,3.00046102 L21.8040449,2.74978499 C34.2933486,7.72146085 42.3819771,19.3948169 42.3819771,33.1147072 C42.3819771,51.5406297 27.9565661,66.4581333 9.70304554,66.4676504 C9.61479784,66.4781228 8.71883946,66.6054212 8.3593536,66.6727316 Z" id="Oval-6" fill-rule="nonzero"></path>
                            </g>
                            <g id="Group-24-Copy-4" transform="translate(25.435715, 36.450001) scale(-1, 1) translate(-25.435715, -36.450001) translate(0.685714, 0.000000)">
                                <path d="M18.2586992,73.4465692 C16.9390283,72.1909131 16.1158419,70.4138543 16.1158419,68.4436278 C16.1158419,66.4734012 16.9390283,64.6963425 18.2586992,63.4406864 C19.5783701,64.6963425 20.4015564,66.4734012 20.4015564,68.4436278 C20.4015564,70.4138543 19.5783701,72.1909131 18.2586992,73.4465692 Z" id="Combined-Shape" transform="translate(18.258699, 68.443628) rotate(-240.000000) translate(-18.258699, -68.443628) "></path>
                                <path d="M11.8189663,66.4227963 C10.4992954,65.1671402 9.6761091,63.3900814 9.6761091,61.4198549 C9.6761091,59.4496284 10.4992954,57.6725696 11.8189663,56.4169135 C13.1386372,57.6725696 13.9618236,59.4496284 13.9618236,61.4198549 C13.9618236,63.3900814 13.1386372,65.1671402 11.8189663,66.4227963 Z" id="Combined-Shape-Copy-20" transform="translate(11.818966, 61.419855) rotate(20.000000) translate(-11.818966, -61.419855) "></path>
                                <path d="M19.6452107,64.8580835 C18.3255397,63.6024274 17.5023534,61.8253686 17.5023534,59.8551421 C17.5023534,57.8849156 18.3255397,56.1078568 19.6452107,54.8522007 C20.9648816,56.1078568 21.7880679,57.8849156 21.7880679,59.8551421 C21.7880679,61.8253686 20.9648816,63.6024274 19.6452107,64.8580835 Z" id="Combined-Shape-Copy-21" transform="translate(19.645211, 59.855142) rotate(10.000000) translate(-19.645211, -59.855142) "></path>
                                <path d="M26.6666677,70.5176499 C25.3469968,69.2619938 24.5238105,67.484935 24.5238105,65.5147085 C24.5238105,63.544482 25.3469968,61.7674232 26.6666677,60.5117671 C27.9863386,61.7674232 28.809525,63.544482 28.809525,65.5147085 C28.809525,67.484935 27.9863386,69.2619938 26.6666677,70.5176499 Z" id="Combined-Shape-Copy-2" transform="translate(26.666668, 65.514708) rotate(-246.000000) translate(-26.666668, -65.514708) "></path>
                                <path d="M33.0365108,66.4792912 C31.7168399,65.2236351 30.8936536,63.4465763 30.8936536,61.4763498 C30.8936536,59.5061233 31.7168399,57.7290645 33.0365108,56.4734084 C34.3561817,57.7290645 35.179368,59.5061233 35.179368,61.4763498 C35.179368,63.4465763 34.3561817,65.2236351 33.0365108,66.4792912 Z" id="Combined-Shape-Copy-3" transform="translate(33.036511, 61.476350) rotate(-252.000000) translate(-33.036511, -61.476350) "></path>
                                <path d="M26.2307367,60.9178369 C24.9110658,59.6621808 24.0878795,57.885122 24.0878795,55.9148955 C24.0878795,53.944669 24.9110658,52.1676102 26.2307367,50.9119541 C27.5504076,52.1676102 28.3735939,53.944669 28.3735939,55.9148955 C28.3735939,57.885122 27.5504076,59.6621808 26.2307367,60.9178369 Z" id="Combined-Shape-Copy-22" transform="translate(26.230737, 55.914896) rotate(5.000000) translate(-26.230737, -55.914896) "></path>
                                <path d="M38.4523825,60.0352965 C37.2060266,58.8394336 36.4285729,57.1469967 36.4285729,55.2705904 C36.4285729,53.3941842 37.2060266,51.7017473 38.4523825,50.5058844 C39.6987383,51.7017473 40.4761921,53.3941842 40.4761921,55.2705904 C40.4761921,57.1469967 39.6987383,58.8394336 38.4523825,60.0352965 Z" id="Combined-Shape-Copy-5" transform="translate(38.452382, 55.270590) rotate(-267.000000) translate(-38.452382, -55.270590) "></path>
                                <path d="M31.478756,56.6201262 C30.2324001,55.4242633 29.4549464,53.7318263 29.4549464,51.8554201 C29.4549464,49.9790139 30.2324001,48.286577 31.478756,47.090714 C32.7251118,48.286577 33.5025656,49.9790139 33.5025656,51.8554201 C33.5025656,53.7318263 32.7251118,55.4242633 31.478756,56.6201262 Z" id="Combined-Shape-Copy-23" transform="translate(31.478756, 51.855420) rotate(-5.000000) translate(-31.478756, -51.855420) "></path>
                                <path d="M41.9047636,53.364708 C40.7317228,52.2585348 40.0000016,50.6930306 40.0000016,48.9573549 C40.0000016,47.2216791 40.7317228,45.656175 41.9047636,44.5500018 C43.0778044,45.656175 43.8095256,47.2216791 43.8095256,48.9573549 C43.8095256,50.6930306 43.0778044,52.2585348 41.9047636,53.364708 Z" id="Combined-Shape-Copy-6" transform="translate(41.904764, 48.957355) rotate(-274.000000) translate(-41.904764, -48.957355) "></path>
                                <path d="M35.7142871,51.4588256 C34.5412463,50.3526524 33.8095252,48.7871482 33.8095252,47.0514725 C33.8095252,45.3157967 34.5412463,43.7502926 35.7142871,42.6441193 C36.8873279,43.7502926 37.6190491,45.3157967 37.6190491,47.0514725 C37.6190491,48.7871482 36.8873279,50.3526524 35.7142871,51.4588256 Z" id="Combined-Shape-Copy-24" transform="translate(35.714287, 47.051472) rotate(-5.000000) translate(-35.714287, -47.051472) "></path>
                                <path d="M44.5327566,44.1853784 C43.4330308,43.1389983 42.7470423,41.658116 42.7470423,40.0162606 C42.7470423,38.3744051 43.4330308,36.8935228 44.5327566,35.8471428 C45.6324824,36.8935228 46.318471,38.3744051 46.318471,40.0162606 C46.318471,41.658116 45.6324824,43.1389983 44.5327566,44.1853784 Z" id="Combined-Shape-Copy-8" transform="translate(44.532757, 40.016261) rotate(-294.000000) translate(-44.532757, -40.016261) "></path>
                                <path d="M38.6725971,45.0102459 C37.5728713,43.9638659 36.8868827,42.4829836 36.8868827,40.8411281 C36.8868827,39.1992727 37.5728713,37.7183904 38.6725971,36.6720103 C39.7723228,37.7183904 40.4583114,39.1992727 40.4583114,40.8411281 C40.4583114,42.4829836 39.7723228,43.9638659 38.6725971,45.0102459 Z" id="Combined-Shape-Copy-25" transform="translate(38.672597, 40.841128) rotate(-10.000000) translate(-38.672597, -40.841128) "></path>
                                <path d="M44.50492,35.8796597 C43.4785093,34.8930727 42.8382533,33.4968123 42.8382533,31.9487771 C42.8382533,30.400742 43.4785093,29.0044816 44.50492,28.0178946 C45.5313307,29.0044816 46.1715867,30.400742 46.1715867,31.9487771 C46.1715867,33.4968123 45.5313307,34.8930727 44.50492,35.8796597 Z" id="Combined-Shape-Copy-9" transform="translate(44.504920, 31.948777) rotate(-314.000000) translate(-44.504920, -31.948777) "></path>
                                <path d="M39.5981392,37.9483631 C38.5717284,36.9617762 37.9314724,35.5655158 37.9314724,34.0174806 C37.9314724,32.4694455 38.5717284,31.073185 39.5981392,30.0865981 C40.6245499,31.073185 41.2648059,32.4694455 41.2648059,34.0174806 C41.2648059,35.5655158 40.6245499,36.9617762 39.5981392,37.9483631 Z" id="Combined-Shape-Copy-26" transform="translate(39.598139, 34.017481) rotate(-30.000000) translate(-39.598139, -34.017481) "></path>
                                <path d="M43.768263,27.9733061 C42.8884824,27.1362021 42.3396915,25.9514962 42.3396915,24.6380119 C42.3396915,23.3245275 42.8884824,22.1398217 43.768263,21.3027176 C44.6480436,22.1398217 45.1968345,23.3245275 45.1968345,24.6380119 C45.1968345,25.9514962 44.6480436,27.1362021 43.768263,27.9733061 Z" id="Combined-Shape-Copy-12" transform="translate(43.768263, 24.638012) rotate(-318.000000) translate(-43.768263, -24.638012) "></path>
                                <path d="M39.4825486,31.5468357 C38.602768,30.7097316 38.0539771,29.5250258 38.0539771,28.2115414 C38.0539771,26.8980571 38.602768,25.7133512 39.4825486,24.8762472 C40.3623292,25.7133512 40.9111201,26.8980571 40.9111201,28.2115414 C40.9111201,29.5250258 40.3623292,30.7097316 39.4825486,31.5468357 Z" id="Combined-Shape-Copy-27" transform="translate(39.482549, 28.211541) rotate(-50.000000) translate(-39.482549, -28.211541) "></path>
                                <path d="M42.0154529,22.5444863 C41.2089873,21.7771409 40.705929,20.6911605 40.705929,19.4871332 C40.705929,18.2831059 41.2089873,17.1971255 42.0154529,16.4297801 C42.8219184,17.1971255 43.3249767,18.2831059 43.3249767,19.4871332 C43.3249767,20.6911605 42.8219184,21.7771409 42.0154529,22.5444863 Z" id="Combined-Shape-Copy-13" transform="translate(42.015453, 19.487133) rotate(-328.000000) translate(-42.015453, -19.487133) "></path>
                                <path d="M38.2059289,26.3562511 C37.3994634,25.5889057 36.8964051,24.5029254 36.8964051,23.2988981 C36.8964051,22.0948707 37.3994634,21.0088904 38.2059289,20.241545 C39.0123945,21.0088904 39.5154528,22.0948707 39.5154528,23.2988981 C39.5154528,24.5029254 39.0123945,25.5889057 38.2059289,26.3562511 Z" id="Combined-Shape-Copy-28" transform="translate(38.205929, 23.298898) rotate(-70.000000) translate(-38.205929, -23.298898) "></path>
                                <path d="M39.6345004,18.2562508 C38.8280348,17.4889054 38.3249765,16.4029251 38.3249765,15.1988977 C38.3249765,13.9948704 38.8280348,12.9088901 39.6345004,12.1415447 C40.440966,12.9088901 40.9440243,13.9948704 40.9440243,15.1988977 C40.9440243,16.4029251 40.440966,17.4889054 39.6345004,18.2562508 Z" id="Combined-Shape-Copy-14" transform="translate(39.634500, 15.198898) rotate(-336.000000) translate(-39.634500, -15.198898) "></path>
                                <path d="M36.5392622,22.0680157 C35.7327966,21.3006703 35.2297383,20.2146899 35.2297383,19.0106626 C35.2297383,17.8066353 35.7327966,16.7206549 36.5392622,15.9533095 C37.3457277,16.7206549 37.848786,17.8066353 37.848786,19.0106626 C37.848786,20.2146899 37.3457277,21.3006703 36.5392622,22.0680157 Z" id="Combined-Shape-Copy-29" transform="translate(36.539262, 19.010663) rotate(-70.000000) translate(-36.539262, -19.010663) "></path>
                                <path d="M36.9047634,14.2941182 C36.1716129,13.606497 35.7142871,12.6333458 35.7142871,11.5544122 C35.7142871,10.4754786 36.1716129,9.50232742 36.9047634,8.81470623 C37.6379139,9.50232742 38.0952396,10.4754786 38.0952396,11.5544122 C38.0952396,12.6333458 37.6379139,13.606497 36.9047634,14.2941182 Z" id="Combined-Shape-Copy-15" transform="translate(36.904763, 11.554412) rotate(-345.000000) translate(-36.904763, -11.554412) "></path>
                                <path d="M34.5238109,18.1058831 C33.7906604,17.4182619 33.3333347,16.4451107 33.3333347,15.3661771 C33.3333347,14.2872435 33.7906604,13.3140923 34.5238109,12.6264711 C35.2569614,13.3140923 35.7142871,14.2872435 35.7142871,15.3661771 C35.7142871,16.4451107 35.2569614,17.4182619 34.5238109,18.1058831 Z" id="Combined-Shape-Copy-30" transform="translate(34.523811, 15.366177) rotate(-80.000000) translate(-34.523811, -15.366177) "></path>
                                <path d="M33.5714299,10.7205887 C32.8382794,10.0329675 32.3809537,9.05981625 32.3809537,7.98088267 C32.3809537,6.90194909 32.8382794,5.92879787 33.5714299,5.24117668 C34.3045804,5.92879787 34.7619061,6.90194909 34.7619061,7.98088267 C34.7619061,9.05981625 34.3045804,10.0329675 33.5714299,10.7205887 Z" id="Combined-Shape-Copy-16" transform="translate(33.571430, 7.980883) rotate(-356.000000) translate(-33.571430, -7.980883) "></path>
                                <path d="M31.9047632,15.0088241 C31.1716127,14.3212029 30.7142869,13.3480517 30.7142869,12.2691181 C30.7142869,11.1901846 31.1716127,10.2170333 31.9047632,9.52941214 C32.6379137,10.2170333 33.0952394,11.1901846 33.0952394,12.2691181 C33.0952394,13.3480517 32.6379137,14.3212029 31.9047632,15.0088241 Z" id="Combined-Shape-Copy-31" transform="translate(31.904763, 12.269118) rotate(-90.000000) translate(-31.904763, -12.269118) "></path>
                                <path d="M29.7619059,7.62352971 C29.0287554,6.93590853 28.5714297,5.9627573 28.5714297,4.88382372 C28.5714297,3.80489015 29.0287554,2.83173892 29.7619059,2.14411773 C30.4950565,2.83173892 30.9523822,3.80489015 30.9523822,4.88382372 C30.9523822,5.9627573 30.4950565,6.93590853 29.7619059,7.62352971 Z" id="Combined-Shape-Copy-17" transform="translate(29.761906, 4.883824) rotate(-366.000000) translate(-29.761906, -4.883824) "></path>
                                <path d="M29.0476202,12.1500005 C28.3144697,11.4623793 27.857144,10.4892281 27.857144,9.41029449 C27.857144,8.33136092 28.3144697,7.35820969 29.0476202,6.6705885 C29.7807707,7.35820969 30.2380964,8.33136092 30.2380964,9.41029449 C30.2380964,10.4892281 29.7807707,11.4623793 29.0476202,12.1500005 Z" id="Combined-Shape-Copy-32" transform="translate(29.047620, 9.410294) rotate(-100.000000) translate(-29.047620, -9.410294) "></path>
                                <path d="M25.8333344,5.24117668 C25.1734989,4.61334864 24.7619057,3.72481926 24.7619057,2.73970599 C24.7619057,1.75459273 25.1734989,0.866063345 25.8333344,0.238235304 C26.4931698,0.866063345 26.904763,1.75459273 26.904763,2.73970599 C26.904763,3.72481926 26.4931698,4.61334864 25.8333344,5.24117668 Z" id="Combined-Shape-Copy-18" transform="translate(25.833334, 2.739706) rotate(-16.000000) translate(-25.833334, -2.739706) "></path>
                                <path d="M25.5952391,9.52941214 C24.9354037,8.9015841 24.5238105,8.01305472 24.5238105,7.02794146 C24.5238105,6.04282819 24.9354037,5.15429881 25.5952391,4.52647077 C26.2550746,5.15429881 26.6666677,6.04282819 26.6666677,7.02794146 C26.6666677,8.01305472 26.2550746,8.9015841 25.5952391,9.52941214 Z" id="Combined-Shape-Copy-33" transform="translate(25.595239, 7.027941) rotate(-110.000000) translate(-25.595239, -7.027941) "></path>
                                <path d="M23.2142866,6.6705885 C22.7010813,6.19224333 22.3809533,5.51526856 22.3809533,4.76470607 C22.3809533,4.01414358 22.7010813,3.33716882 23.2142866,2.85882364 C23.727492,3.33716882 24.04762,4.01414358 24.04762,4.76470607 C24.04762,5.51526856 23.727492,6.19224333 23.2142866,6.6705885 Z" id="Combined-Shape-Copy-34" transform="translate(23.214287, 4.764706) rotate(-100.000000) translate(-23.214287, -4.764706) "></path>
                                <path d="M20.5952389,4.76470607 C19.9354035,4.13687803 19.5238103,3.24834865 19.5238103,2.26323538 C19.5238103,1.27812212 19.9354035,0.389592738 20.5952389,-0.238235303 C21.2550744,0.389592738 21.6666675,1.27812212 21.6666675,2.26323538 C21.6666675,3.24834865 21.2550744,4.13687803 20.5952389,4.76470607 Z" id="Combined-Shape-Copy-19" transform="translate(20.595239, 2.263235) rotate(-66.000000) translate(-20.595239, -2.263235) "></path>
                                <path d="M8.3593536,66.6727316 C7.33608459,66.8643292 6.31688655,67.1297231 5.37161335,67.4796306 C3.2042412,68.2819168 1.78733649,69.3928146 1.40333697,70.7997013 L0.025234513,70.4231156 C0.559654832,68.4651213 2.31955277,67.085306 4.87594788,66.139017 C5.90466872,65.7582201 6.99955606,65.4731171 8.09658534,65.2677085 C8.48061795,65.195802 9.45296332,65.040721 9.4131338,65.0470308 C27.0040591,65.0481336 41.6793636,50.7652682 41.6793636,33.1147072 C41.6793636,28.0840944 40.7249559,23.1859243 38.5816209,18.789646 C35.1309154,11.7117688 28.9775543,5.9347973 21.6062336,3.00046102 L21.8040449,2.74978499 C34.2933486,7.72146085 42.3819771,19.3948169 42.3819771,33.1147072 C42.3819771,51.5406297 27.9565661,66.4581333 9.70304554,66.4676504 C9.61479784,66.4781228 8.71883946,66.6054212 8.3593536,66.6727316 Z" id="Oval-6" fill-rule="nonzero"></path>
                            </g>
                        </g>
                    </g>
                </g>
            </g>
        </g>
    </g>
</svg>