<?xml version="1.0" encoding="UTF-8"?>
<svg width="162px" height="162px" viewBox="0 0 162 162" version="1.1" xmlns="http://www.w3.org/2000/svg" xmlns:xlink="http://www.w3.org/1999/xlink">
    <!-- Generator: Sketch 54.1 (76490) - https://sketchapp.com -->
    <title>lensa-app-icon</title>
    <desc>Created with Sketch.</desc>
    <defs>
        <linearGradient x1="50%" y1="0%" x2="50%" y2="100%" id="linearGradient-1">
            <stop stop-color="#808080" stop-opacity="0.5" offset="0%"></stop>
            <stop stop-color="#000000" stop-opacity="0.5" offset="100%"></stop>
        </linearGradient>
        <path d="M36.5353641,-1.47607244e-15 L91.4646359,1.47607244e-15 C104.168778,-8.57640595e-16 108.775607,1.32276496 113.420051,3.80664103 C118.064496,6.2905171 121.709483,9.93550428 124.193359,14.5799487 C126.677235,19.2243932 128,23.8312221 128,36.5353641 L128,91.4646359 C128,104.168778 126.677235,108.775607 124.193359,113.420051 C121.709483,118.064496 118.064496,121.709483 113.420051,124.193359 C108.775607,126.677235 104.168778,128 91.4646359,128 L36.5353641,128 C23.8312221,128 19.2243932,126.677235 14.5799487,124.193359 C9.93550428,121.709483 6.2905171,118.064496 3.80664103,113.420051 C1.32276496,108.775607 5.71760396e-16,104.168778 -9.84048292e-16,91.4646359 L9.84048292e-16,36.5353641 C-5.71760396e-16,23.8312221 1.32276496,19.2243932 3.80664103,14.5799487 C6.2905171,9.93550428 9.93550428,6.2905171 14.5799487,3.80664103 C19.2243932,1.32276496 23.8312221,8.57640595e-16 36.5353641,-1.47607244e-15 Z" id="path-2"></path>
        <filter x="-22.3%" y="-17.6%" width="144.5%" height="144.5%" filterUnits="objectBoundingBox" id="filter-3">
            <feOffset dx="0" dy="6" in="SourceAlpha" result="shadowOffsetOuter1"></feOffset>
            <feGaussianBlur stdDeviation="8.5" in="shadowOffsetOuter1" result="shadowBlurOuter1"></feGaussianBlur>
            <feColorMatrix values="0 0 0 0 0   0 0 0 0 0   0 0 0 0 0  0 0 0 0.15463833 0" type="matrix" in="shadowBlurOuter1"></feColorMatrix>
        </filter>
    </defs>
    <g id="v5" stroke="none" stroke-width="1" fill="none" fill-rule="evenodd">
        <g id="PrismaLabs-Landing-Copy-3" transform="translate(-227.000000, -655.000000)">
            <g id="Group-2" transform="translate(0.000000, 573.000000)">
                <g id="lensa-app-icon" transform="translate(244.000000, 93.000000)">
                    <g id="Path">
                        <use fill="black" fill-opacity="1" filter="url(#filter-3)" xlink:href="#path-2"></use>
                        <use fill="#151515" fill-rule="evenodd" xlink:href="#path-2"></use>
                        <use fill="url(#linearGradient-1)" fill-rule="evenodd" xlink:href="#path-2"></use>
                    </g>
                    <path d="M64,86.5 C76.4264069,86.5 86.5,76.4264069 86.5,64 C86.5,51.5735931 76.4264069,41.5 64,41.5 C51.5735931,41.5 41.5,51.5735931 41.5,64 C41.5,76.4264069 51.5735931,86.5 64,86.5 Z M64.0527086,100 C44.117749,100 28,83.882251 28,64.0527086 C28,44.117749 44.117749,28 64.0527086,28 C83.882251,28 100,44.117749 100,64.0527086 C100,83.882251 83.882251,100 64.0527086,100 Z" id="Combined-Shape" fill="#FFFFFF" fill-rule="nonzero"></path>
                </g>
            </g>
        </g>
    </g>
</svg>